<svg width="15" height="16" viewBox="0 0 15 16" fill="none" xmlns="http://www.w3.org/2000/svg">
<g clip-path="url(#clip0_34347_9280)">
<path d="M12 7.98535H3.25C2.55964 7.98535 2 8.545 2 9.23535V13.6104C2 14.3007 2.55964 14.8604 3.25 14.8604H12C12.6904 14.8604 13.25 14.3007 13.25 13.6104V9.23535C13.25 8.545 12.6904 7.98535 12 7.98535Z" fill="#FF8D1A" stroke="#FF8D1A" stroke-width="1.5" stroke-linecap="round" stroke-linejoin="round"/>
<path d="M4 7.61035V5.11035C4 4.28155 4.32924 3.48669 4.91529 2.90064C5.50134 2.31459 6.2962 1.98535 7.125 1.98535C7.9538 1.98535 8.74866 2.31459 9.33471 2.90064C9.92076 3.48669 10.25 4.28155 10.25 5.11035V7.61035" stroke="#FF8D1A" stroke-width="1.5" stroke-linecap="round" stroke-linejoin="round"/>
</g>
<defs>
<clipPath id="clip0_34347_9280">
<rect width="15" height="15" fill="white" transform="translate(0 0.985352)"/>
</clipPath>
</defs>
</svg>
