<svg width="22" height="22" viewBox="0 0 22 22" fill="none" xmlns="http://www.w3.org/2000/svg">
<path d="M5.10273 3.25732C3.5829 3.25732 2.3335 4.60148 2.3335 6.24305V13.7074C2.3335 15.346 3.5829 16.6931 5.10273 16.6931H6.70369L7.91523 19.9587C8.01529 20.2503 8.2749 20.4457 8.56427 20.4457C8.85363 20.4457 9.11324 20.2503 9.2133 19.9587L10.4248 16.6931H17.5643C19.0841 16.6931 20.3335 15.346 20.3335 13.7074V6.24305C20.3335 4.60148 19.0841 3.25732 17.5643 3.25732H5.10273ZM5.10273 4.75019H17.5643C18.3377 4.75019 18.9489 5.40915 18.9489 6.24305V13.7074C18.9489 14.5383 18.335 15.2002 17.5643 15.2002H9.94888C9.66493 15.1973 9.40531 15.381 9.29984 15.6667L8.56427 17.6495L7.82869 15.6667C7.72322 15.381 7.4636 15.1973 7.17965 15.2002H5.10273C4.33199 15.2002 3.71811 14.5383 3.71811 13.7074V6.24305C3.71811 5.40915 4.32929 4.75019 5.10273 4.75019Z" fill="#8A8A8E"/>
</svg>
