<svg width="18" height="5" viewBox="0 0 18 5" fill="none" xmlns="http://www.w3.org/2000/svg">
<path fill-rule="evenodd" clip-rule="evenodd" d="M0 2.98527C0 3.51801 0.211631 4.02893 0.588336 4.40564C0.965041 4.78234 1.47596 4.99397 2.0087 4.99397C2.54145 4.99397 3.05237 4.78234 3.42907 4.40564C3.80578 4.02893 4.01741 3.51801 4.01741 2.98527C4.01741 2.45253 3.80578 1.9416 3.42907 1.5649C3.05237 1.18819 2.54145 0.976562 2.0087 0.976562C1.47596 0.976562 0.965041 1.18819 0.588336 1.5649C0.211631 1.9416 0 2.45253 0 2.98527ZM6.99023 2.98527C6.99023 3.51801 7.20187 4.02893 7.57857 4.40564C7.95528 4.78234 8.4662 4.99397 8.99894 4.99397C9.53168 4.99397 10.0426 4.78234 10.4193 4.40564C10.796 4.02893 11.0076 3.51801 11.0076 2.98527C11.0076 2.45253 10.796 1.9416 10.4193 1.5649C10.0426 1.18819 9.53168 0.976562 8.99894 0.976562C8.4662 0.976562 7.95528 1.18819 7.57857 1.5649C7.20187 1.9416 6.99023 2.45253 6.99023 2.98527ZM14.1354 3.75396C14.0345 3.51026 13.9825 3.24905 13.9825 2.98527C13.9825 2.72148 14.0345 2.46028 14.1354 2.21657C14.2364 1.97286 14.3843 1.75142 14.5709 1.5649C14.7574 1.37837 14.9788 1.23041 15.2225 1.12947C15.4662 1.02852 15.7274 0.976562 15.9912 0.976562C16.255 0.976562 16.5162 1.02852 16.7599 1.12947C17.0036 1.23041 17.2251 1.37837 17.4116 1.5649C17.5981 1.75142 17.7461 1.97286 17.847 2.21657C17.948 2.46028 17.9999 2.72148 17.9999 2.98527C17.9999 3.24905 17.948 3.51026 17.847 3.75396C17.7461 3.99767 17.5981 4.21911 17.4116 4.40564C17.2251 4.59216 17.0036 4.74012 16.7599 4.84107C16.5162 4.94201 16.255 4.99397 15.9912 4.99397C15.7274 4.99397 15.4662 4.94201 15.2225 4.84107C14.9788 4.74012 14.7574 4.59216 14.5709 4.40564C14.3843 4.21911 14.2364 3.99767 14.1354 3.75396Z" fill="#999999"/>
</svg>
