<svg width="30" height="30" viewBox="0 0 30 30" fill="none" xmlns="http://www.w3.org/2000/svg">
<path fill-rule="evenodd" clip-rule="evenodd" d="M14.5 3C21.4036 3 27 8.59644 27 15.5C27 22.4036 21.4036 28 14.5 28C7.59644 28 2 22.4036 2 15.5C2 8.59644 7.59644 3 14.5 3ZM15 22.5C15.8284 22.5 16.5 21.8284 16.5 21V16C16.5 15.1716 15.8284 14.5 15 14.5C14.1716 14.5 13.5 15.1716 13.5 16V21C13.5 21.8284 14.1716 22.5 15 22.5ZM15 12.5C14.1716 12.5 13.5 11.8284 13.5 11C13.5 10.1716 14.1716 9.5 15 9.5H15.0125C15.8409 9.5 16.5125 10.1716 16.5125 11C16.5125 11.8284 15.8409 12.5 15.0125 12.5H15Z" fill="white"/>
</svg>
