<svg width="22" height="22" viewBox="0 0 22 22" fill="none" xmlns="http://www.w3.org/2000/svg">
<path d="M3.2915 19.7136C3.23023 19.7138 3.16928 19.7042 3.11067 19.685C2.98214 19.6434 2.86951 19.5584 2.7895 19.4426C2.70949 19.3268 2.66636 19.1864 2.6665 19.0422V17.2518C2.66937 14.4629 3.70191 11.7892 5.53758 9.81718C7.37326 7.84517 9.86214 6.73594 12.4582 6.73286H12.6665V2.92815C12.6666 2.79544 12.7033 2.66575 12.772 2.55544C12.8407 2.44514 12.9383 2.35917 13.0524 2.3084C13.1665 2.25763 13.2921 2.24434 13.4133 2.27019C13.5345 2.29605 13.6458 2.3599 13.7332 2.45368L20.3998 9.61549C20.4579 9.67776 20.5039 9.75172 20.5354 9.83314C20.5668 9.91455 20.583 10.0018 20.583 10.09C20.583 10.1781 20.5668 10.2654 20.5354 10.3468C20.5039 10.4282 20.4579 10.5021 20.3998 10.5644L13.7332 17.7262C13.6458 17.82 13.5345 17.8839 13.4133 17.9097C13.2921 17.9356 13.1665 17.9223 13.0524 17.8715C12.9383 17.8207 12.8407 17.7348 12.772 17.6245C12.7033 17.5142 12.6666 17.3845 12.6665 17.2518V13.3128C11.4215 13.1203 7.68317 13.1731 3.8115 19.411C3.75471 19.5036 3.67753 19.5796 3.58682 19.6324C3.49611 19.6852 3.39467 19.7131 3.2915 19.7136ZM12.4582 8.0757C10.2377 8.0785 8.10524 9.00894 6.5118 10.6703C4.91836 12.3316 3.98885 14.5936 3.91984 16.9778C8.72734 10.5322 13.2815 12.0648 13.489 12.1436C13.6127 12.1879 13.7205 12.2726 13.7971 12.3859C13.8738 12.4993 13.9155 12.6355 13.9165 12.7756V15.6305L19.074 10.09L13.9165 4.54941V7.40428C13.9165 7.58235 13.8507 7.75313 13.7334 7.87905C13.6162 8.00496 13.4573 8.0757 13.2915 8.0757H12.4582Z" fill="#8A8A8E"/>
</svg>
