<svg width="22" height="22" viewBox="0 0 22 22" fill="none" xmlns="http://www.w3.org/2000/svg">
<path d="M10.5 2L9.85384 5.05985L7.59473 7.75602C7.31889 8.08457 7.16667 8.51149 7.16667 8.95373V17.2188C7.16667 18.2081 7.9125 19.0093 8.83333 19.0093H15.526C16.1435 19.0093 16.7026 18.6187 16.9535 18.0126L19.4551 11.9646C19.5942 11.6298 19.6667 11.2668 19.6667 10.8998V10.057C19.6667 9.07228 18.9167 8.26658 18 8.26658H12.1667C12.1667 8.26658 13 6.14425 13 4.56328C13 2.10857 10.5 2 10.5 2ZM3 8.26658V19.0093H5.5V8.26658H3Z" stroke="#8A8A8E" stroke-width="1.3"/>
</svg>
