<svg width="30" height="30" viewBox="0 0 30 30" fill="none" xmlns="http://www.w3.org/2000/svg">
<path d="M1.00879 25.8247C1.25571 22.0517 1.96558 18.3094 3.8483 14.8738C6.07052 10.8554 9.49645 8.46276 14.0952 7.94128C15.1137 7.81859 15.3606 7.45049 15.2989 6.53024C15.2372 5.42595 15.2372 4.29098 15.2989 3.15601C15.3606 1.99036 16.1014 1.65294 17.0273 2.38914C20.3298 4.9965 23.5705 7.66521 26.8421 10.2726C27.6755 10.9474 27.7372 11.5302 26.9039 12.2664C23.6631 15.0885 20.4224 17.9106 17.1508 20.7327C16.8113 21.0394 16.4409 21.3769 15.9162 21.1621C15.3606 20.9167 15.2681 20.4259 15.2681 19.9045C15.2681 18.8309 15.2372 17.7572 15.2989 16.6836C15.3298 15.8861 15.1446 15.6407 14.2804 15.794C8.75571 16.7756 4.31126 20.9781 3.10756 26.4996C3.0767 26.6836 2.9841 26.8983 2.95324 27.0824C2.86065 27.7266 2.73719 28.4014 1.90386 28.3401C0.97793 28.248 0.97793 27.5118 1.00879 26.8063C1.00879 26.4996 1.00879 26.1928 1.00879 25.8247Z" fill="white"/>
</svg>
