<svg width="22" height="22" viewBox="0 0 22 22" fill="none" xmlns="http://www.w3.org/2000/svg">
<path fill-rule="evenodd" clip-rule="evenodd" d="M17.0717 5.8073C18.7072 6.96037 19.9448 8.55777 20.6454 10.4277L20.7326 10.6567L20.6454 10.8857C19.9448 12.7529 18.71 14.3503 17.0717 15.5061C15.3952 16.6892 13.4244 17.3134 11.3663 17.3134C9.30823 17.3134 7.33737 16.6864 5.66093 15.5061C4.02537 14.353 2.7878 12.7556 2.08724 10.8857L2 10.6567L2.08724 10.4277C2.7878 8.56047 4.02263 6.96309 5.66093 5.8073C7.33739 4.62423 9.30823 4 11.3663 4C13.4244 4 15.3952 4.62697 17.0717 5.8073ZM3.40114 10.6594C4.71503 13.8679 7.88256 16.0077 11.3663 16.0077C14.8473 16.0077 18.0176 13.8679 19.3315 10.6594C18.0176 7.45099 14.85 5.31116 11.3663 5.31116C7.88256 5.31116 4.71229 7.44829 3.40114 10.6594ZM8 10.4619C8 8.55378 9.55376 7 11.4619 7C13.3701 7 14.9239 8.55378 14.9239 10.4619C14.9239 12.3701 13.3701 13.9239 11.4619 13.9239C9.55378 13.9239 8 12.3701 8 10.4619ZM9.30844 10.4619C9.30844 11.6504 10.2734 12.6154 11.4619 12.6154C12.6477 12.6154 13.6154 11.6504 13.6154 10.4619C13.6154 9.27341 12.6504 8.30844 11.4619 8.30844C10.2734 8.30844 9.30844 9.27341 9.30844 10.4619Z" fill="#8A8A8E"/>
</svg>
