<svg width="21" height="20" viewBox="0 0 21 20" fill="none" xmlns="http://www.w3.org/2000/svg">
<path d="M15.9631 19.1811C15.6746 19.1811 15.3861 19.1066 15.1255 18.9484L11.3935 16.7333C11.0026 16.724 10.6117 16.6962 10.2395 16.6404C9.98818 16.6031 9.77413 16.4355 9.68106 16.1935C9.588 15.9516 9.63453 15.691 9.80205 15.4955C10.4163 14.7789 10.7327 13.9227 10.7327 13.0107C10.7327 10.7584 8.7504 8.92503 6.31203 8.92503C5.39998 8.92503 4.52514 9.1764 3.78992 9.66035C3.58517 9.79064 3.33389 9.80926 3.11053 9.70688C2.89648 9.60451 2.73827 9.39967 2.71035 9.1577C2.68243 8.89711 2.66382 8.63662 2.66382 8.36672C2.66382 3.75058 6.66569 0 11.5796 0C16.4935 0 20.4954 3.75058 20.4954 8.36672C20.4954 10.8981 19.3228 13.2247 17.2567 14.8162L17.5731 17.3477C17.6476 17.9805 17.3684 18.5761 16.8379 18.9205C16.5773 19.088 16.2702 19.1811 15.9631 19.1811ZM11.5703 15.328C11.7006 15.3187 11.8309 15.356 11.9426 15.4305L15.8421 17.7478C15.9445 17.813 16.0282 17.7851 16.0841 17.7478C16.1306 17.7199 16.205 17.6455 16.1864 17.5152L15.8235 14.5742C15.7955 14.3136 15.9072 14.0624 16.112 13.9135C18.0105 12.5826 19.0994 10.5537 19.0994 8.34802C19.0994 4.5044 15.7304 1.37737 11.5796 1.37737C7.58705 1.37737 4.31109 4.28109 4.06912 7.9293C4.76712 7.65941 5.52097 7.51048 6.30273 7.51048C9.51354 7.51048 12.1194 9.96738 12.1194 12.992C12.1287 13.811 11.9333 14.6021 11.5703 15.328Z" fill="#FF8D1A"/>
<path d="M3.59445 20C3.35248 20 3.11981 19.9348 2.90576 19.7952C2.48696 19.5253 2.26361 19.06 2.31945 18.5668L2.50557 17.1335C1.24917 16.1098 0.504639 14.5928 0.504639 13.0014C0.504639 11.1866 1.45393 9.49275 3.04537 8.47832C4.00395 7.85479 5.13936 7.51978 6.32131 7.51978C9.53213 7.51978 12.138 9.9767 12.138 13.0014C12.138 14.2298 11.6913 15.4397 10.8723 16.3983C9.82064 17.6733 8.24779 18.4178 6.51675 18.4737L4.24592 19.8232C4.04117 19.9441 3.81781 20 3.59445 20ZM6.312 8.91574C5.39995 8.91574 4.52511 9.16702 3.78988 9.65096C2.59863 10.4141 1.89133 11.6612 1.89133 13.0014C1.89133 14.295 2.52419 15.4769 3.64099 16.2401C3.85505 16.389 3.96672 16.6403 3.9388 16.9009L3.73405 18.4923L5.95835 17.1708C6.07003 17.1056 6.19101 17.0684 6.312 17.0684C7.68008 17.0684 8.97373 16.4821 9.79272 15.4862C10.407 14.7603 10.7327 13.9041 10.7327 12.9921C10.7327 10.7492 8.75037 8.91574 6.312 8.91574Z" fill="#FF8D1A"/>
</svg>
