<svg width="21" height="20" viewBox="0 0 21 20" fill="none" xmlns="http://www.w3.org/2000/svg">
<path d="M15.9677 19.1379C15.6791 19.1379 15.3906 19.0636 15.1301 18.9057L11.3981 16.6956C11.0072 16.6864 10.6163 16.6586 10.2441 16.6029C9.99277 16.5657 9.77872 16.3985 9.68565 16.1571C9.59258 15.9156 9.63912 15.6556 9.80664 15.4606C10.4209 14.7456 10.7373 13.8914 10.7373 12.9814C10.7373 10.7342 8.75498 8.90493 6.31662 8.90493C5.40457 8.90493 4.52973 9.15574 3.7945 9.6386C3.58976 9.7686 3.33848 9.78717 3.11512 9.68503C2.90106 9.58288 2.74286 9.37851 2.71494 9.13708C2.68702 8.87708 2.66841 8.61717 2.66841 8.34789C2.66841 3.74214 6.67027 7.61221e-06 11.5842 7.61221e-06C16.4981 7.61221e-06 20.5 3.74214 20.5 8.34789C20.5 10.8736 19.3274 13.1949 17.2613 14.7828L17.5777 17.3086C17.6522 17.94 17.373 18.5343 16.8425 18.8779C16.5819 19.045 16.2748 19.1379 15.9677 19.1379ZM11.5749 15.2935C11.7052 15.2842 11.8355 15.3215 11.9472 15.3957L15.8467 17.7079C15.949 17.7729 16.0328 17.745 16.0886 17.7079C16.1352 17.68 16.2096 17.6057 16.191 17.4757L15.8281 14.5414C15.8001 14.2814 15.9118 14.0307 16.1166 13.8822C18.0151 12.5543 19.104 10.5299 19.104 8.32922C19.104 4.49426 15.735 1.37427 11.5842 1.37427C7.59163 1.37427 4.31568 4.27145 4.0737 7.91145C4.7717 7.64216 5.52555 7.49357 6.30731 7.49357C9.51813 7.49357 12.124 9.94493 12.124 12.9628C12.1333 13.7799 11.9379 14.5692 11.5749 15.2935Z" fill="#999999"/>
<path d="M3.58981 20C3.34784 20 3.11517 19.935 2.90112 19.7957C2.48232 19.5264 2.25897 19.0622 2.31481 18.57L2.50093 17.14C1.24453 16.1186 0.5 14.605 0.5 13.0172C0.5 11.2064 1.44929 9.51645 3.04073 8.5043C3.99932 7.88217 5.13472 7.54791 6.31667 7.54791C9.5275 7.54791 12.1334 9.9993 12.1334 13.0172C12.1334 14.2429 11.6866 15.45 10.8677 16.4064C9.816 17.6786 8.24315 18.4214 6.51211 18.4772L4.24128 19.8236C4.03653 19.9443 3.81317 20 3.58981 20ZM6.30736 8.94073C5.39531 8.94073 4.52047 9.19145 3.78524 9.6743C2.59399 10.4357 1.88669 11.68 1.88669 13.0172C1.88669 14.3079 2.51956 15.4872 3.63636 16.2486C3.85041 16.3972 3.96208 16.6479 3.93416 16.9079L3.72941 18.4957L5.95371 17.1772C6.06539 17.1122 6.18637 17.075 6.30736 17.075C7.67544 17.075 8.9691 16.49 9.78808 15.4964C10.4023 14.7722 10.7281 13.9179 10.7281 13.0079C10.7281 10.77 8.74574 8.94073 6.30736 8.94073Z" fill="#999999"/>
</svg>
