<svg width="18" height="18" viewBox="0 0 18 18" fill="none" xmlns="http://www.w3.org/2000/svg">
<path d="M16.788 10.713C15.8233 10.207 14.7078 10.068 13.6485 10.322C12.5891 10.576 11.6579 11.2056 11.0275 12.0941C10.3972 12.9825 10.1105 14.0695 10.2207 15.1532C10.3309 16.237 10.8305 17.244 11.6268 17.9874H1.2C0.88174 17.9874 0.576516 17.861 0.351472 17.6359C0.126428 17.4109 0 17.1057 0 16.7874V1.2C0 0.88174 0.126428 0.576516 0.351472 0.351472C0.576516 0.126428 0.88174 0 1.2 0H15.588C15.9063 0 16.2115 0.126428 16.4365 0.351472C16.6616 0.576516 16.788 0.88174 16.788 1.2V10.713ZM3.5976 4.197C3.51725 4.19446 3.43721 4.20809 3.36223 4.23708C3.28725 4.26608 3.21886 4.30984 3.16113 4.36578C3.10339 4.42172 3.05748 4.48869 3.02613 4.56271C2.99478 4.63674 2.97863 4.71631 2.97863 4.7967C2.97863 4.87709 2.99478 4.95666 3.02613 5.03068C3.05748 5.10471 3.10339 5.17168 3.16113 5.22762C3.21886 5.28356 3.28725 5.32732 3.36223 5.35632C3.43721 5.38531 3.51725 5.39894 3.5976 5.3964H10.7928C10.8731 5.39894 10.9532 5.38531 11.0282 5.35632C11.1031 5.32732 11.1715 5.28356 11.2293 5.22762C11.287 5.17168 11.3329 5.10471 11.3643 5.03068C11.3956 4.95666 11.4118 4.87709 11.4118 4.7967C11.4118 4.71631 11.3956 4.63674 11.3643 4.56271C11.3329 4.48869 11.287 4.42172 11.2293 4.36578C11.1715 4.30984 11.1031 4.26608 11.0282 4.23708C10.9532 4.20809 10.8731 4.19446 10.7928 4.197H3.5976ZM3.5976 7.7946C3.51725 7.79206 3.43721 7.80569 3.36223 7.83468C3.28725 7.86368 3.21886 7.90744 3.16113 7.96338C3.10339 8.01932 3.05748 8.08629 3.02613 8.16031C2.99478 8.23434 2.97863 8.31391 2.97863 8.3943C2.97863 8.47469 2.99478 8.55426 3.02613 8.62829C3.05748 8.70231 3.10339 8.76928 3.16113 8.82522C3.21886 8.88116 3.28725 8.92492 3.36223 8.95392C3.43721 8.98291 3.51725 8.99654 3.5976 8.994H8.394C8.47435 8.99654 8.55439 8.98291 8.62937 8.95392C8.70435 8.92492 8.77274 8.88116 8.83047 8.82522C8.88821 8.76928 8.93412 8.70231 8.96547 8.62829C8.99682 8.55426 9.01297 8.47469 9.01297 8.3943C9.01297 8.31391 8.99682 8.23434 8.96547 8.16031C8.93412 8.08629 8.88821 8.01932 8.83047 7.96338C8.77274 7.90744 8.70435 7.86368 8.62937 7.83468C8.55439 7.80569 8.47435 7.79206 8.394 7.7946H3.5976ZM15 14.4V12.9C15 12.8204 14.9684 12.7441 14.9121 12.6879C14.8559 12.6316 14.7796 12.6 14.7 12.6C14.6204 12.6 14.5441 12.6316 14.4879 12.6879C14.4316 12.7441 14.4 12.8204 14.4 12.9V14.7C14.3998 14.7394 14.4075 14.7785 14.4225 14.815C14.4375 14.8515 14.4596 14.8846 14.4875 14.9125C14.5154 14.9404 14.5485 14.9625 14.585 14.9775C14.6215 14.9925 14.6606 15.0002 14.7 15H16.5C16.5394 15 16.5784 14.9923 16.6148 14.9772C16.6512 14.9621 16.6843 14.94 16.7122 14.9122C16.7401 14.8843 16.7622 14.8512 16.7772 14.8148C16.7923 14.7784 16.8001 14.7394 16.8001 14.7C16.8001 14.6606 16.7923 14.6216 16.7772 14.5852C16.7622 14.5488 16.7401 14.5157 16.7122 14.4878C16.6843 14.46 16.6512 14.4379 16.6148 14.4228C16.5784 14.4077 16.5394 14.4 16.5 14.4H15ZM14.7 18C13.8248 18 12.9854 17.6523 12.3665 17.0335C11.7477 16.4146 11.4 15.5752 11.4 14.7C11.4 13.8248 11.7477 12.9854 12.3665 12.3665C12.9854 11.7477 13.8248 11.4 14.7 11.4C15.5752 11.4 16.4146 11.7477 17.0335 12.3665C17.6523 12.9854 18 13.8248 18 14.7C18 15.5752 17.6523 16.4146 17.0335 17.0335C16.4146 17.6523 15.5752 18 14.7 18Z" fill="#AFAFAF"/>
</svg>
