<svg width="23" height="22" viewBox="0 0 23 22" fill="none" xmlns="http://www.w3.org/2000/svg">
<path d="M1.5 20.47H21.5" stroke="#FF8D1A" stroke-width="1.5" stroke-miterlimit="10" stroke-linecap="round" stroke-linejoin="round"/>
<path d="M2.44984 20.47L2.49984 8.43996C2.49984 7.82996 2.78984 7.25001 3.26984 6.87001L10.2699 1.42C10.9899 0.86 11.9998 0.86 12.7298 1.42L19.7299 6.86C20.2199 7.24 20.4999 7.81996 20.4999 8.43996V20.47" stroke="#FF8D1A" stroke-width="1.5" stroke-miterlimit="10" stroke-linejoin="round"/>
<path d="M12.4999 15.47H10.4999C9.66994 15.47 8.99994 16.14 8.99994 16.97V20.47H13.9999V16.97C13.9999 16.14 13.3299 15.47 12.4999 15.47Z" stroke="#FF8D1A" stroke-width="1.5" stroke-miterlimit="10" stroke-linejoin="round"/>
<path d="M9.00003 12.22H7.00003C6.45003 12.22 6.00003 11.77 6.00003 11.22V9.71997C6.00003 9.16997 6.45003 8.71997 7.00003 8.71997H9.00003C9.55003 8.71997 10 9.16997 10 9.71997V11.22C10 11.77 9.55003 12.22 9.00003 12.22Z" stroke="#FF8D1A" stroke-width="1.5" stroke-miterlimit="10" stroke-linejoin="round"/>
<path d="M16 12.22H14C13.45 12.22 13 11.77 13 11.22V9.71997C13 9.16997 13.45 8.71997 14 8.71997H16C16.55 8.71997 17 9.16997 17 9.71997V11.22C17 11.77 16.55 12.22 16 12.22Z" stroke="#FF8D1A" stroke-width="1.5" stroke-miterlimit="10" stroke-linejoin="round"/>
<path d="M18.5002 5.47009L18.4702 2.47009H14.0702" stroke="#FF8D1A" stroke-width="1.5" stroke-miterlimit="10" stroke-linecap="round" stroke-linejoin="round"/>
</svg>
