<svg width="23" height="22" viewBox="0 0 23 22" fill="none" xmlns="http://www.w3.org/2000/svg">
<path d="M1.5 20.5853H21.5" stroke="#999999" stroke-width="1.5" stroke-miterlimit="10" stroke-linecap="round" stroke-linejoin="round"/>
<path d="M2.44983 20.5853L2.49983 8.55532C2.49983 7.94532 2.78983 7.36537 3.26983 6.98537L10.2699 1.53536C10.9899 0.975356 11.9998 0.975356 12.7298 1.53536L19.7299 6.97536C20.2199 7.35536 20.4999 7.93532 20.4999 8.55532V20.5853" stroke="#999999" stroke-width="1.5" stroke-miterlimit="10" stroke-linejoin="round"/>
<path d="M12.4999 15.5854H10.4999C9.66994 15.5854 8.99994 16.2554 8.99994 17.0854V20.5854H13.9999V17.0854C13.9999 16.2554 13.3299 15.5854 12.4999 15.5854Z" stroke="#999999" stroke-width="1.5" stroke-miterlimit="10" stroke-linejoin="round"/>
<path d="M9 12.3353H7C6.45 12.3353 6 11.8853 6 11.3353V9.83533C6 9.28533 6.45 8.83533 7 8.83533H9C9.55 8.83533 10 9.28533 10 9.83533V11.3353C10 11.8853 9.55 12.3353 9 12.3353Z" stroke="#999999" stroke-width="1.5" stroke-miterlimit="10" stroke-linejoin="round"/>
<path d="M16 12.3353H14C13.45 12.3353 13 11.8853 13 11.3353V9.83533C13 9.28533 13.45 8.83533 14 8.83533H16C16.55 8.83533 17 9.28533 17 9.83533V11.3353C17 11.8853 16.55 12.3353 16 12.3353Z" stroke="#999999" stroke-width="1.5" stroke-miterlimit="10" stroke-linejoin="round"/>
<path d="M18.5002 5.58539L18.4702 2.58539H14.0702" stroke="#999999" stroke-width="1.5" stroke-miterlimit="10" stroke-linecap="round" stroke-linejoin="round"/>
</svg>
