<svg width="23" height="21" viewBox="0 0 23 21" fill="none" xmlns="http://www.w3.org/2000/svg">
<path d="M1.5 20H21.5" stroke="#999999" stroke-width="1.5" stroke-miterlimit="10" stroke-linecap="round" stroke-linejoin="round"/>
<path d="M2.5 20.47L2.55 8.43996C2.55 7.82996 2.84 7.25001 3.32 6.87001L10.3201 1.42C11.0401 0.86 12.05 0.86 12.78 1.42L19.7801 6.86C20.2701 7.24 20.5501 7.81996 20.5501 8.43996V20.47" stroke="#999999" stroke-width="1.5" stroke-miterlimit="10" stroke-linejoin="round"/>
<path d="M13 15H11C10.17 15 9.5 15.67 9.5 16.5V20H14.5V16.5C14.5 15.67 13.83 15 13 15Z" stroke="#999999" stroke-width="1.5" stroke-miterlimit="10" stroke-linejoin="round"/>
<path d="M9.5 12.5H7.5C6.95 12.5 6.5 12.05 6.5 11.5V10C6.5 9.45 6.95 9 7.5 9H9.5C10.05 9 10.5 9.45 10.5 10V11.5C10.5 12.05 10.05 12.5 9.5 12.5Z" stroke="#999999" stroke-width="1.5" stroke-miterlimit="10" stroke-linejoin="round"/>
<path d="M16.5 12.5H14.5C13.95 12.5 13.5 12.05 13.5 11.5V10C13.5 9.45 13.95 9 14.5 9H16.5C17.05 9 17.5 9.45 17.5 10V11.5C17.5 12.05 17.05 12.5 16.5 12.5Z" stroke="#999999" stroke-width="1.5" stroke-miterlimit="10" stroke-linejoin="round"/>
<path d="M19.4729 6.5V2H14" stroke="#999999" stroke-width="1.5" stroke-miterlimit="10" stroke-linecap="round" stroke-linejoin="round"/>
</svg>
