<svg width="20" height="20" viewBox="0 0 20 20" fill="none" xmlns="http://www.w3.org/2000/svg">
<path d="M17.5 3.75H0V6.25H2.5V17.5C2.5 18.8457 3.61857 20 5 20H15C16.38 20 17.5 18.8457 17.5 17.5V6.25H20V3.75H17.5ZM15 16.2529C15 16.9414 14.4336 17.5 13.7536 17.5H6.24643C6.08268 17.5 5.92055 17.4677 5.76928 17.4051C5.61801 17.3424 5.48057 17.2505 5.36482 17.1347C5.24907 17.0189 5.15727 16.8814 5.09467 16.7301C5.03208 16.5788 4.99991 16.4166 5 16.2529V6.25H15V16.2529ZM15 0H5V2.5H15V0ZM11.25 8.75H8.75V15H11.25V8.75Z" fill="#AFAFAF"/>
</svg>
