<svg width="17" height="15" viewBox="0 0 17 15" fill="none" xmlns="http://www.w3.org/2000/svg">
<path d="M7.64309 11.6174L7.73838 11.7149L7.77099 11.8473L8.284 13.9301C8.46637 13.8924 8.68426 13.8313 8.89755 13.7336C9.38507 13.5102 9.80581 13.1274 9.80581 12.3756C9.80581 11.8082 9.62738 11.1088 9.43152 10.5218C9.33568 10.2346 9.23967 9.98589 9.16776 9.80938C9.13187 9.72127 9.10214 9.65155 9.08166 9.60444C9.07142 9.5809 9.06351 9.56304 9.0583 9.55139L9.05258 9.53865L9.05133 9.53591L9.05122 9.53565L9.05117 9.53554L9.05114 9.53548L9.05113 9.53546L8.72689 8.82746H9.50581H15.1058C15.7492 8.82746 16.2058 8.35024 16.2058 7.85377V7.1601C16.2058 6.9351 16.1541 6.71078 16.0528 6.50178L16.0524 6.50092L13.6508 1.52302C13.5005 1.21167 13.1486 0.985352 12.7308 0.985352H6.30581C5.65844 0.985352 5.20581 1.45889 5.20581 1.95904V8.76187C5.20581 8.98989 5.297 9.21711 5.474 9.39787L5.47434 9.39822L7.64309 11.6174ZM2.60581 0.985352H1.20581V8.82746H2.60581V0.985352Z" stroke="#86868A"/>
</svg>
