<svg width="22" height="22" viewBox="0 0 22 22" fill="none" xmlns="http://www.w3.org/2000/svg">
<path d="M4 9H6C8 9 9 8 9 6V4C9 2 8 1 6 1H4C2 1 1 2 1 4V6C1 8 2 9 4 9Z" stroke="#FF8D1A" stroke-width="1.5" stroke-miterlimit="10" stroke-linecap="round" stroke-linejoin="round"/>
<path d="M16.0001 9H18.0001C20.0001 9 21.0001 8 21.0001 6V4C21.0001 2 20.0001 1 18.0001 1H16.0001C14.0001 1 13.0001 2 13.0001 4V6C13.0001 8 14.0001 9 16.0001 9Z" stroke="#FF8D1A" stroke-width="1.5" stroke-miterlimit="10" stroke-linecap="round" stroke-linejoin="round"/>
<path d="M16 21H18C20 21 21 20 21 18V16C21 14 20 13 18 13H16C14 13 13 14 13 16V18C13 20 14 21 16 21Z" stroke="#FF8D1A" stroke-width="1.5" stroke-miterlimit="10" stroke-linecap="round" stroke-linejoin="round"/>
<path d="M4 21H6C8 21 9 20 9 18V16C9 14 8 13 6 13H4C2 13 1 14 1 16V18C1 20 2 21 4 21Z" stroke="#FF8D1A" stroke-width="1.5" stroke-miterlimit="10" stroke-linecap="round" stroke-linejoin="round"/>
</svg>
