<svg width="11" height="12" viewBox="0 0 11 12" fill="none" xmlns="http://www.w3.org/2000/svg">
<path d="M5.28114 11.6857C5.5018 11.8952 5.83279 12 6.05346 12C6.38445 12 6.60511 11.8952 6.82577 11.6857L10.6673 8.03809C11.1086 7.61905 11.1086 6.99048 10.6673 6.58095C10.226 6.1619 9.56399 6.1619 9.13269 6.58095L7.14674 8.45714V1.04762C7.14674 0.523809 6.70541 0 6.04343 0C5.38144 0 4.94012 0.419048 4.94012 1.04762V8.5619L2.86389 6.57143C2.42256 6.15238 1.76058 6.15238 1.32928 6.57143C0.88796 6.99048 0.88796 7.61905 1.32928 8.02857L5.28114 11.6857Z" fill="#00C147"/>
</svg>
