<svg width="17" height="15" viewBox="0 0 17 15" fill="none" xmlns="http://www.w3.org/2000/svg">
<path d="M7.67046 0.485352L7.05015 3.00385L4.8814 5.22302C4.6166 5.49344 4.47046 5.84483 4.47046 6.20883V13.0117C4.47046 13.8259 5.18646 14.4854 6.07046 14.4854H12.4955C13.0883 14.4854 13.625 14.1639 13.8658 13.665L16.2673 8.68704C16.4009 8.41146 16.4705 8.1127 16.4705 7.8106V7.11693C16.4705 6.3064 15.7505 5.64325 14.8705 5.64325H9.27046C9.27046 5.64325 10.0705 3.8964 10.0705 2.59514C10.0705 0.574717 7.67046 0.485352 7.67046 0.485352ZM0.470459 5.64325V14.4854H2.87046V5.64325H0.470459Z" fill="#FF8D1A"/>
</svg>
