<svg width="18" height="22" viewBox="0 0 18 22" fill="none" xmlns="http://www.w3.org/2000/svg">
<path d="M9.02405 1.81372C5.81123 1.81372 3.20024 4.42472 3.20024 7.63751V10.4426C3.20024 11.0347 2.94787 11.9374 2.64698 12.4421L1.53075 14.296C0.841601 15.4414 1.31721 16.7129 2.57903 17.14C6.76245 18.5377 11.2759 18.5377 15.4593 17.14C16.6338 16.7517 17.1482 15.3637 16.5076 14.296L15.3914 12.4421C15.1002 11.9374 14.8478 11.0347 14.8478 10.4426V7.63751C14.8478 4.43443 12.2271 1.81372 9.02405 1.81372Z" stroke="#FF8D1A" stroke-width="1.5" stroke-miterlimit="10" stroke-linecap="round"/>
<path d="M10.8057 2.21C10.5048 2.12357 10.1942 2.05635 9.87389 2.01794C8.94208 1.9027 8.0491 1.96992 7.21436 2.21C7.49584 1.49937 8.19469 1 9.01002 1C9.82535 1 10.5242 1.49937 10.8057 2.21Z" stroke="#FF8D1A" stroke-width="1.5" stroke-miterlimit="10" stroke-linecap="round" stroke-linejoin="round"/>
<path d="M12.0381 18.0881C12.0381 19.6897 10.7278 21 9.12623 21C8.33031 21 7.59263 20.67 7.06851 20.1459C6.54437 19.6217 6.21436 18.8841 6.21436 18.0881" stroke="#FF8D1A" stroke-width="1.5" stroke-miterlimit="10"/>
</svg>
