<svg width="22" height="26" viewBox="0 0 22 26" fill="none" xmlns="http://www.w3.org/2000/svg">
<path d="M11.0294 2.15704C7.08111 2.15704 3.87238 5.36577 3.87238 9.31404V12.7613C3.87238 13.4889 3.56225 14.5983 3.19247 15.2186L1.82071 17.4969C0.973797 18.9044 1.55829 20.467 3.10897 20.9919C8.25008 22.7096 13.7968 22.7096 18.9379 20.9919C20.3812 20.5147 21.0134 18.809 20.2262 17.4969L18.8544 15.2186C18.4966 14.5983 18.1864 13.4889 18.1864 12.7613V9.31404C18.1864 5.37769 14.9658 2.15704 11.0294 2.15704Z" stroke="#FF8D1A" stroke-width="1.5" stroke-miterlimit="10" stroke-linecap="round"/>
<path d="M13.2357 2.50297C12.866 2.39562 12.4843 2.31212 12.0906 2.2644C10.9455 2.12126 9.8481 2.20476 8.82227 2.50297C9.16819 1.62027 10.027 1 11.029 1C12.031 1 12.8898 1.62027 13.2357 2.50297Z" stroke="#FF8D1A" stroke-width="1.5" stroke-miterlimit="10" stroke-linecap="round" stroke-linejoin="round"/>
<path d="M14.6077 21.4214C14.6077 23.3896 12.9973 24.9999 11.0292 24.9999C10.051 24.9999 9.14448 24.5943 8.50038 23.9502C7.85625 23.3061 7.45068 22.3995 7.45068 21.4214" stroke="#FF8D1A" stroke-width="1.5" stroke-miterlimit="10"/>
</svg>
