<svg width="22" height="26" viewBox="0 0 22 26" fill="none" xmlns="http://www.w3.org/2000/svg">
<path d="M11.0295 2.15698C7.0812 2.15698 3.87247 5.3657 3.87247 9.31398V12.7613C3.87247 13.4889 3.56234 14.5982 3.19256 15.2185L1.8208 17.4968C0.973889 18.9044 1.55838 20.467 3.10906 20.9918C8.25017 22.7095 13.7969 22.7095 18.938 20.9918C20.3813 20.5147 21.0135 18.8089 20.2263 17.4968L18.8545 15.2185C18.4966 14.5982 18.1865 13.4889 18.1865 12.7613V9.31398C18.1865 5.37763 14.9659 2.15698 11.0295 2.15698Z" stroke="#999999" stroke-width="1.5" stroke-miterlimit="10" stroke-linecap="round"/>
<path d="M13.236 2.50297C12.8662 2.39562 12.4845 2.31212 12.0908 2.2644C10.9457 2.12126 9.84832 2.20476 8.82248 2.50297C9.1684 1.62027 10.0272 1 11.0292 1C12.0312 1 12.89 1.62027 13.236 2.50297Z" stroke="#999999" stroke-width="1.5" stroke-miterlimit="10" stroke-linecap="round" stroke-linejoin="round"/>
<path d="M14.6076 21.4214C14.6076 23.3896 12.9973 24.9999 11.0291 24.9999C10.051 24.9999 9.14445 24.5943 8.50035 23.9502C7.85622 23.3061 7.45065 22.3995 7.45065 21.4214" stroke="#999999" stroke-width="1.5" stroke-miterlimit="10"/>
</svg>
