<svg width="21" height="20" viewBox="0 0 21 20" fill="none" xmlns="http://www.w3.org/2000/svg">
<path d="M11.4855 10.4466C13.1688 9.50774 14.3121 7.66886 14.3121 5.55553C14.3121 2.48777 11.9033 0 8.93216 0C5.96106 0 3.55218 2.48777 3.55218 5.55553C3.55218 7.66997 4.69662 9.50774 6.37884 10.4466C3.46441 11.4966 1.21219 14.2977 0.534419 17.791C0.301087 18.9944 1.28775 19.9999 2.47552 19.9999H15.3888C16.5777 19.9999 17.5632 18.9944 17.3299 17.791C16.6521 14.2977 14.3999 11.4966 11.4855 10.4466ZM12.6988 5.55553C12.6988 7.7033 11.0122 9.4444 8.93216 9.4444C6.85217 9.4444 5.16662 7.7033 5.16662 5.55553C5.16662 3.40776 6.85328 1.66666 8.93327 1.66666C11.0133 1.66666 12.6999 3.40776 12.6999 5.55553H12.6988ZM8.93216 11.6666C12.1233 11.6666 15.0032 14.2855 15.7477 18.1188C15.7496 18.1283 15.7503 18.138 15.7499 18.1477V18.1555C15.7425 18.174 15.7312 18.1907 15.7166 18.2044C15.6735 18.2468 15.6222 18.2802 15.5659 18.3023C15.5095 18.3245 15.4493 18.335 15.3888 18.3333H2.47552C2.41503 18.3349 2.35482 18.3244 2.2985 18.3022C2.24218 18.2801 2.19091 18.2468 2.14775 18.2044C2.1332 18.1907 2.12182 18.174 2.11441 18.1555C2.11405 18.1529 2.11405 18.1503 2.11441 18.1477L2.11663 18.1188C2.86108 14.2855 5.74106 11.6666 8.93216 11.6666ZM16.7332 5.55553C16.7332 5.09553 17.0955 4.7222 17.541 4.7222H19.6932C20.1377 4.7222 20.4999 5.09553 20.4999 5.55553C20.4999 6.01553 20.1388 6.38886 19.6932 6.38886H17.541C17.4332 6.38727 17.3268 6.36444 17.2279 6.32169C17.1289 6.27893 17.0394 6.21708 16.9643 6.13968C16.8893 6.06228 16.8303 5.97085 16.7906 5.87062C16.751 5.77038 16.7315 5.66331 16.7332 5.55553ZM15.6577 8.88885C15.6577 8.42885 16.0188 8.05552 16.4644 8.05552H19.6932C20.1377 8.05552 20.4999 8.42885 20.4999 8.88885C20.4999 9.34885 20.1388 9.72218 19.6932 9.72218H16.4644C16.3567 9.72044 16.2504 9.69751 16.1515 9.65469C16.0527 9.61187 15.9633 9.55 15.8884 9.47261C15.8135 9.39523 15.7546 9.30385 15.715 9.20368C15.6754 9.10352 15.6559 8.99654 15.6577 8.88885ZM17.541 11.3888C17.4332 11.3904 17.3268 11.4133 17.2279 11.456C17.1289 11.4988 17.0394 11.5606 16.9643 11.638C16.8893 11.7154 16.8303 11.8069 16.7906 11.9071C16.751 12.0073 16.7315 12.1144 16.7332 12.2222C16.7332 12.6822 17.0955 13.0555 17.541 13.0555H19.6932C19.8009 13.0538 19.9072 13.0308 20.006 12.988C20.1049 12.9452 20.1943 12.8833 20.2692 12.8059C20.3441 12.7285 20.403 12.6372 20.4426 12.537C20.4822 12.4368 20.5017 12.3299 20.4999 12.2222C20.5017 12.1145 20.4822 12.0075 20.4426 11.9073C20.403 11.8072 20.3441 11.7158 20.2692 11.6384C20.1943 11.561 20.1049 11.4992 20.006 11.4563C19.9072 11.4135 19.8009 11.3906 19.6932 11.3888H17.541Z" fill="#FF8D1A"/>
</svg>
