<svg width="23" height="22" viewBox="0 0 23 22" fill="none" xmlns="http://www.w3.org/2000/svg">
<path d="M11.4948 14.2938C13.2502 14.2938 14.6732 12.8708 14.6732 11.1154C14.6732 9.36002 13.2502 7.93707 11.4948 7.93707C9.73941 7.93707 8.31647 9.36002 8.31647 11.1154C8.31647 12.8708 9.73941 14.2938 11.4948 14.2938Z" stroke="#FF8D1A" stroke-width="1.5" stroke-miterlimit="10" stroke-linecap="round" stroke-linejoin="round"/>
<path d="M0.900208 12.0476V10.183C0.900208 9.0812 1.80074 8.17011 2.91316 8.17011C4.83076 8.17011 5.61475 6.81402 4.65065 5.15069C4.09974 4.19718 4.42817 2.95763 5.39227 2.40672L7.22511 1.35787C8.06207 0.859925 9.14271 1.15657 9.64065 1.99353L9.75719 2.19483C10.7107 3.85816 12.2787 3.85816 13.2428 2.19483L13.3593 1.99353C13.8573 1.15657 14.9379 0.859925 15.7749 1.35787L17.6077 2.40672C18.5718 2.95763 18.9002 4.19718 18.3493 5.15069C17.3852 6.81402 18.1692 8.17011 20.0868 8.17011C21.1886 8.17011 22.0998 9.0706 22.0998 10.183V12.0476C22.0998 13.1495 21.1992 14.0606 20.0868 14.0606C18.1692 14.0606 17.3852 15.4167 18.3493 17.08C18.9002 18.0441 18.5718 19.2731 17.6077 19.824L15.7749 20.8728C14.9379 21.3708 13.8573 21.0741 13.3593 20.2372L13.2428 20.0359C12.2893 18.3726 10.7213 18.3726 9.75719 20.0359L9.64065 20.2372C9.14271 21.0741 8.06207 21.3708 7.22511 20.8728L5.39227 19.824C4.42817 19.2731 4.09974 18.0335 4.65065 17.08C5.61475 15.4167 4.83076 14.0606 2.91316 14.0606C1.80074 14.0606 0.900208 13.1495 0.900208 12.0476Z" stroke="#FF8D1A" stroke-width="1.5" stroke-miterlimit="10" stroke-linecap="round" stroke-linejoin="round"/>
</svg>
