<svg width="23" height="22" viewBox="0 0 23 22" fill="none" xmlns="http://www.w3.org/2000/svg">
<path d="M11.4948 14.1783C13.2502 14.1783 14.6732 12.7554 14.6732 11C14.6732 9.2446 13.2502 7.82166 11.4948 7.82166C9.73942 7.82166 8.31648 9.2446 8.31648 11C8.31648 12.7554 9.73942 14.1783 11.4948 14.1783Z" stroke="#999999" stroke-width="1.5" stroke-miterlimit="10" stroke-linecap="round" stroke-linejoin="round"/>
<path d="M0.900227 11.9323V10.0677C0.900227 8.96584 1.80076 8.05476 2.91318 8.05476C4.83078 8.05476 5.61477 6.69866 4.65067 5.03533C4.09976 4.08183 4.42819 2.84227 5.39228 2.29136L7.22513 1.24251C8.06209 0.744569 9.14273 1.04121 9.64067 1.87818L9.75721 2.07947C10.7107 3.74281 12.2787 3.74281 13.2428 2.07947L13.3593 1.87818C13.8573 1.04121 14.9379 0.744569 15.7749 1.24251L17.6077 2.29136C18.5718 2.84227 18.9002 4.08183 18.3493 5.03533C17.3852 6.69866 18.1692 8.05476 20.0868 8.05476C21.1886 8.05476 22.0998 8.95524 22.0998 10.0677V11.9323C22.0998 13.0341 21.1992 13.9452 20.0868 13.9452C18.1692 13.9452 17.3852 15.3013 18.3493 16.9647C18.9002 17.9288 18.5718 19.1577 17.6077 19.7086L15.7749 20.7575C14.9379 21.2554 13.8573 20.9588 13.3593 20.1218L13.2428 19.9205C12.2893 18.2572 10.7213 18.2572 9.75721 19.9205L9.64067 20.1218C9.14273 20.9588 8.06209 21.2554 7.22513 20.7575L5.39228 19.7086C4.42819 19.1577 4.09976 17.9182 4.65067 16.9647C5.61477 15.3013 4.83078 13.9452 2.91318 13.9452C1.80076 13.9452 0.900227 13.0341 0.900227 11.9323Z" stroke="#999999" stroke-width="1.5" stroke-miterlimit="10" stroke-linecap="round" stroke-linejoin="round"/>
</svg>
