<svg width="30" height="30" viewBox="0 0 30 30" fill="none" xmlns="http://www.w3.org/2000/svg">
<rect width="30" height="30" rx="15" fill="white"/>
<path d="M19.6007 22.3534C19.3843 22.3534 19.168 22.2977 18.9725 22.1793L16.1735 20.5217C15.8804 20.5147 15.5872 20.4939 15.308 20.4521C15.1196 20.4243 14.959 20.2988 14.8892 20.1178C14.8194 19.9367 14.8543 19.7417 14.98 19.5955C15.4406 19.0592 15.678 18.4185 15.678 17.736C15.678 16.0506 14.1912 14.6787 12.3625 14.6787C11.6784 14.6787 11.0223 14.8668 10.4709 15.2289C10.3173 15.3264 10.1289 15.3404 9.96133 15.2638C9.80079 15.1871 9.68214 15.0339 9.6612 14.8528C9.64026 14.6578 9.6263 14.4629 9.6263 14.2609C9.6263 10.8066 12.6277 8.00001 16.3131 8.00001C19.9986 8.00001 23 10.8066 23 14.2609C23 16.1552 22.1205 17.8962 20.5709 19.0871L20.8082 20.9814C20.8641 21.455 20.6547 21.9007 20.2568 22.1584C20.0614 22.2837 19.831 22.3534 19.6007 22.3534ZM16.3062 19.4701C16.4039 19.4631 16.5016 19.4911 16.5854 19.5468L19.51 21.2809C19.5867 21.3296 19.6496 21.3087 19.6914 21.2809C19.7263 21.26 19.7822 21.2043 19.7682 21.1068L19.496 18.906C19.4751 18.711 19.5588 18.523 19.7124 18.4116C21.1363 17.4157 21.953 15.8974 21.953 14.2469C21.953 11.3707 19.4262 9.0307 16.3131 9.0307C13.3187 9.0307 10.8618 11.2036 10.6803 13.9336C11.2038 13.7316 11.7692 13.6202 12.3555 13.6202C14.7636 13.6202 16.718 15.4587 16.718 17.7221C16.725 18.3349 16.5784 18.9269 16.3062 19.4701Z" fill="#FF8D1A"/>
<path d="M10.3174 22.9999C10.1359 22.9999 9.96137 22.9512 9.80084 22.8467C9.48674 22.6448 9.31922 22.2965 9.3611 21.9274L9.5007 20.8549C8.5584 20.0889 8 18.9537 8 17.7628C8 16.4048 8.71197 15.1373 9.90554 14.3782C10.6245 13.9116 11.476 13.6609 12.3625 13.6609C14.7706 13.6609 16.725 15.4994 16.725 17.7628C16.725 18.6821 16.39 19.5874 15.7757 20.3048C14.987 21.2589 13.8073 21.816 12.5091 21.8578L10.806 22.8676C10.6524 22.9582 10.4849 22.9999 10.3174 22.9999ZM12.3555 14.7055C11.6715 14.7055 11.0153 14.8935 10.4639 15.2557C9.57049 15.8267 9.04002 16.76 9.04002 17.7628C9.04002 18.7308 9.51466 19.6153 10.3523 20.1864C10.5128 20.2978 10.5966 20.4858 10.5756 20.6808L10.4221 21.8717L12.0903 20.8828C12.174 20.8341 12.2648 20.8062 12.3555 20.8062C13.3816 20.8062 14.3518 20.3674 14.966 19.6223C15.4267 19.0791 15.671 18.4383 15.671 17.7558C15.671 16.0775 14.1843 14.7055 12.3555 14.7055Z" fill="#FF8D1A"/>
</svg>
