<svg width="30" height="30" viewBox="0 0 30 30" fill="none" xmlns="http://www.w3.org/2000/svg">
<rect width="30" height="30" rx="15" fill="white"/>
<path fill-rule="evenodd" clip-rule="evenodd" d="M11.0683 23H19.93C21.6224 23 22.9983 21.6239 23 19.9314V11.0686C23 9.37612 21.6224 8 19.9317 8H11.0683C9.37596 8 8 9.37612 8 11.0686V19.9314C8 21.6239 9.37596 23 11.0683 23ZM9.07131 11.0686C9.07131 9.96708 9.96686 9.07143 11.0683 9.07143H19.9317C21.0331 9.07143 21.9287 9.96708 21.9287 11.0686V19.9314C21.9287 21.0329 21.0331 21.9286 19.9317 21.9286H11.0683C9.96686 21.9286 9.07131 21.0329 9.07131 19.9314V11.0686ZM12.2852 13.3571H15.4992C15.7954 13.3571 16.0348 13.1177 16.0348 12.8214C16.0348 12.5251 15.7954 12.2857 15.4992 12.2857H12.2852C11.989 12.2857 11.7496 12.5251 11.7496 12.8214C11.7496 13.1177 11.989 13.3571 12.2852 13.3571ZM12.2852 16.0357H18.7131C19.0094 16.0357 19.2487 15.7963 19.2487 15.5C19.2487 15.2037 19.0094 14.9643 18.7131 14.9643H12.2852C11.989 14.9643 11.7496 15.2037 11.7496 15.5C11.7496 15.7963 11.989 16.0357 12.2852 16.0357ZM12.2852 18.7143H18.7131C19.0094 18.7143 19.2487 18.4749 19.2487 18.1786C19.2487 17.8823 19.0094 17.6429 18.7131 17.6429H12.2852C11.989 17.6429 11.7496 17.8823 11.7496 18.1786C11.7496 18.4749 11.989 18.7143 12.2852 18.7143Z" fill="#FF8D1A"/>
</svg>
