<svg width="19" height="24" viewBox="0 0 19 24" fill="none" xmlns="http://www.w3.org/2000/svg">
<path d="M11.1903 23.6983L9.29873 22.2034L7.22415 23.6831L4.52415 22.1576L2.38856 23.5763H2.20551C1.19873 23.5763 0.375 22.7525 0.375 21.7458V2.83051C0.375 1.82373 1.19873 1 2.20551 1H16.5445C17.5513 1 18.375 1.82373 18.375 2.83051V21.7458C18.375 22.7525 17.5513 23.5763 16.5445 23.5763H16.3767L13.9513 22.1424L11.1903 23.6983ZM13.936 20.7237L16.6665 22.3254C16.9411 22.2644 17.1394 22.0203 17.1394 21.7305V2.81525C17.1394 2.47966 16.8648 2.20508 16.5292 2.20508H2.19025C1.85466 2.20508 1.58008 2.47966 1.58008 2.81525V21.7305C1.58008 22.0203 1.77839 22.2492 2.03771 22.3254L4.44788 20.7085L7.13263 22.2339L9.32924 20.6627L11.297 22.2186L13.936 20.7237Z" fill="#999999" stroke="#999999" stroke-width="0.5"/>
<path d="M14.5462 7.86429H4.17336C3.74624 7.86429 3.41064 7.5287 3.41064 7.10158C3.41064 6.67446 3.74624 6.33887 4.17336 6.33887H14.5462C14.9734 6.33887 15.309 6.67446 15.309 7.10158C15.309 7.51344 14.9734 7.86429 14.5462 7.86429ZM4.17336 10.305H9.96997C10.3971 10.305 10.7327 10.6406 10.7327 11.0677C10.7327 11.4948 10.3971 11.8304 9.96997 11.8304H4.17336C3.74624 11.8304 3.41064 11.4948 3.41064 11.0677C3.41064 10.6406 3.74624 10.305 4.17336 10.305Z" fill="#999999" stroke="#999999" stroke-width="0.5"/>
</svg>
