<svg width="20" height="24" viewBox="0 0 20 24" fill="none" xmlns="http://www.w3.org/2000/svg">
<path d="M11.8153 23.6983L9.92373 22.2034L7.84915 23.6831L5.14915 22.1576L3.01356 23.5763H2.83051C1.82373 23.5763 1 22.7525 1 21.7458V2.83051C1 1.82373 1.82373 1 2.83051 1H17.1695C18.1763 1 19 1.82373 19 2.83051V21.7458C19 22.7525 18.1763 23.5763 17.1695 23.5763H17.0017L14.5763 22.1424L11.8153 23.6983ZM14.561 20.7237L17.2915 22.3254C17.5661 22.2644 17.7644 22.0203 17.7644 21.7305V2.81525C17.7644 2.47966 17.4898 2.20508 17.1542 2.20508H2.81525C2.47966 2.20508 2.20508 2.47966 2.20508 2.81525V21.7305C2.20508 22.0203 2.40339 22.2492 2.66271 22.3254L5.07288 20.7085L7.75763 22.2339L9.95424 20.6627L11.922 22.2186L14.561 20.7237Z" fill="white" stroke="white" stroke-width="0.5"/>
<path d="M15.1712 7.86429H4.79836C4.37124 7.86429 4.03564 7.5287 4.03564 7.10158C4.03564 6.67446 4.37124 6.33887 4.79836 6.33887H15.1712C15.5984 6.33887 15.934 6.67446 15.934 7.10158C15.934 7.51344 15.5984 7.86429 15.1712 7.86429ZM4.79836 10.305H10.595C11.0221 10.305 11.3577 10.6406 11.3577 11.0677C11.3577 11.4948 11.0221 11.8304 10.595 11.8304H4.79836C4.37124 11.8304 4.03564 11.4948 4.03564 11.0677C4.03564 10.6406 4.37124 10.305 4.79836 10.305Z" fill="white" stroke="white" stroke-width="0.5"/>
</svg>
