<svg width="20" height="26" viewBox="0 0 20 26" fill="none" xmlns="http://www.w3.org/2000/svg">
<path fill-rule="evenodd" clip-rule="evenodd" d="M12.7106 3.54306C12.5602 1.99658 11.2547 0.785889 9.66903 0.785889C8.07585 0.785889 6.7655 2.01065 6.62543 3.56557C6.58537 3.58189 6.5454 3.59853 6.50552 3.61551C5.53213 4.02864 4.65778 4.62003 3.9051 5.37271C3.15242 6.12539 2.56103 6.99974 2.1479 7.97313C1.7178 8.9833 1.49992 10.0529 1.49992 11.1536V16.3771L0.107747 19.8151C-0.0761788 20.2707 -0.0224158 20.7828 0.252058 21.1903C0.526531 21.5949 0.9821 21.8383 1.47162 21.8383H18.5286C19.0577 21.8383 19.5359 21.5638 19.7991 21.1054C20.0651 20.6442 20.0679 20.0952 19.8019 19.634L17.8919 16.312V11.1536C17.8919 10.0529 17.674 8.9833 17.2439 7.97313C16.8308 6.99974 16.2394 6.12539 15.4867 5.37271C14.7341 4.62003 13.8597 4.02864 12.8863 3.61551C12.8279 3.59065 12.7694 3.5665 12.7106 3.54306ZM10.8911 3.05342C10.6316 2.65206 10.1805 2.38463 9.6662 2.38463C9.14763 2.38463 8.69339 2.65648 8.43499 3.06334C8.84636 2.99957 9.2639 2.96753 9.68602 2.96753H9.70583C10.1055 2.96753 10.501 2.99625 10.8911 3.05342ZM5.85753 25.214H13.8173C14.3153 25.214 14.7227 24.8066 14.7227 24.3085C14.7227 23.8105 14.3153 23.4031 13.8173 23.4031H5.85753C5.35952 23.4031 4.95205 23.8105 4.95205 24.3085C4.95205 24.8066 5.35952 25.214 5.85753 25.214ZM17.94 20.0273H1.9753L3.31088 16.7308V11.1536C3.31088 9.45868 3.97584 7.85994 5.18409 6.6517C6.39234 5.44345 7.99108 4.77849 9.68602 4.77849H9.70583C11.4008 4.77849 12.9995 5.44345 14.2078 6.6517C15.416 7.85994 16.081 9.45868 16.081 11.1536V16.7959L17.94 20.0273Z" fill="white"/>
</svg>
