<svg width="21" height="26" viewBox="0 0 21 26" fill="none" xmlns="http://www.w3.org/2000/svg">
<path fill-rule="evenodd" clip-rule="evenodd" d="M12.8356 3.54306C12.6852 1.99658 11.3797 0.785889 9.79403 0.785889C8.20085 0.785889 6.8905 2.01065 6.75043 3.56557C6.71037 3.58189 6.6704 3.59853 6.63052 3.61551C5.65713 4.02864 4.78278 4.62003 4.0301 5.37271C3.27742 6.12539 2.68603 6.99974 2.2729 7.97313C1.8428 8.9833 1.62492 10.0529 1.62492 11.1536V16.3771L0.232747 19.8151C0.0488212 20.2707 0.102584 20.7828 0.377058 21.1903C0.651531 21.5949 1.1071 21.8383 1.59662 21.8383H18.6536C19.1827 21.8383 19.6609 21.5638 19.9241 21.1054C20.1901 20.6442 20.1929 20.0952 19.9269 19.634L18.0169 16.312V11.1536C18.0169 10.0529 17.799 8.9833 17.3689 7.97313C16.9558 6.99974 16.3644 6.12539 15.6117 5.37271C14.8591 4.62003 13.9847 4.02864 13.0113 3.61551C12.9529 3.59065 12.8944 3.5665 12.8356 3.54306ZM11.0161 3.05342C10.7566 2.65206 10.3055 2.38463 9.7912 2.38463C9.27263 2.38463 8.81839 2.65648 8.55999 3.06334C8.97136 2.99957 9.3889 2.96753 9.81102 2.96753H9.83083C10.2305 2.96753 10.626 2.99625 11.0161 3.05342ZM5.98253 25.214H13.9423C14.4403 25.214 14.8477 24.8066 14.8477 24.3085C14.8477 23.8105 14.4403 23.4031 13.9423 23.4031H5.98253C5.48452 23.4031 5.07705 23.8105 5.07705 24.3085C5.07705 24.8066 5.48452 25.214 5.98253 25.214ZM18.065 20.0273H2.1003L3.43588 16.7308V11.1536C3.43588 9.45868 4.10084 7.85994 5.30909 6.6517C6.51734 5.44345 8.11608 4.77849 9.81102 4.77849H9.83083C11.5258 4.77849 13.1245 5.44345 14.3328 6.6517C15.541 7.85994 16.206 9.45868 16.206 11.1536V16.7959L18.065 20.0273Z" fill="#999999"/>
</svg>
