<svg width="40" height="40" viewBox="0 0 40 40" fill="none" xmlns="http://www.w3.org/2000/svg">
<path opacity="0.2" d="M40 20C40 31.0457 31.0457 40 20 40C8.9543 40 -9.65645e-07 31.0457 0 20C9.65645e-07 8.9543 8.95431 -9.65645e-07 20 0C31.0457 9.65645e-07 40 8.95431 40 20Z" fill="#00C147"/>
<path d="M38 20C38 29.9411 29.9411 38 20 38C10.0589 38 2 29.9411 2 20C2 10.0589 10.0589 2 20 2C29.9411 2 38 10.0589 38 20Z" fill="#00C147"/>
<path d="M26.1386 19.9999C26.1386 23.3901 23.3903 26.1384 20.0002 26.1384C16.61 26.1384 13.8617 23.3901 13.8617 19.9999C13.8617 16.6097 16.61 13.8615 20.0002 13.8615C23.3903 13.8615 26.1386 16.6097 26.1386 19.9999Z" fill="white"/>
<path d="M30.2307 19.9999C30.2307 25.6502 25.6502 30.2307 19.9999 30.2307C14.3496 30.2307 9.76917 25.6502 9.76917 19.9999C9.76917 14.3496 14.3496 9.76917 19.9999 9.76917C25.6502 9.76917 30.2307 14.3496 30.2307 19.9999Z" stroke="white" stroke-width="1.5"/>
</svg>
