<svg width="62" height="62" viewBox="0 0 62 62" fill="none" xmlns="http://www.w3.org/2000/svg">
<path d="M0.749999 31C0.749997 47.7071 14.2929 61.25 31 61.25C47.7071 61.25 61.25 47.7071 61.25 31C61.25 14.2929 47.7071 0.749995 31 0.749994C14.2929 0.749992 0.75 14.2929 0.749999 31ZM47.7938 47.7938C43.3398 52.2478 37.2989 54.75 31 54.75C24.7011 54.75 18.6602 52.2478 14.2062 47.7938C9.75223 43.3398 7.25 37.2989 7.25 31C7.25 24.7011 9.75223 18.6602 14.2062 14.2062C18.6602 9.75222 24.7011 7.25 31 7.25C37.2989 7.25 43.3398 9.75222 47.7938 14.2062C52.2478 18.6602 54.75 24.7011 54.75 31C54.75 37.2989 52.2478 43.3398 47.7938 47.7938ZM28.7019 36.2981C29.3114 36.9076 30.138 37.25 31 37.25C31.862 37.25 32.6886 36.9076 33.2981 36.2981C33.9076 35.6886 34.25 34.862 34.25 34L34.25 16C34.25 15.138 33.9076 14.3114 33.2981 13.7019C32.6886 13.0924 31.862 12.75 31 12.75C30.1381 12.75 29.3114 13.0924 28.7019 13.7019C28.0924 14.3114 27.75 15.138 27.75 16L27.75 34C27.75 34.862 28.0924 35.6886 28.7019 36.2981ZM29.1823 48.8884C29.7586 49.1271 30.3762 49.25 31 49.25C32.2598 49.25 33.468 48.7496 34.3588 47.8588C35.2496 46.968 35.75 45.7598 35.75 44.5C35.75 43.2402 35.2496 42.032 34.3588 41.1412C33.468 40.2504 32.2598 39.75 31 39.75C30.3762 39.75 29.7586 39.8729 29.1823 40.1116C28.606 40.3503 28.0823 40.7002 27.6412 41.1412C27.2002 41.5823 26.8503 42.106 26.6116 42.6823C26.3729 43.2585 26.25 43.8762 26.25 44.5C26.25 45.1238 26.3729 45.7414 26.6116 46.3177C26.8503 46.894 27.2002 47.4177 27.6412 47.8588C28.0823 48.2998 28.606 48.6497 29.1823 48.8884Z" fill="#FF564F" stroke="#FF564F" stroke-width="0.5"/>
</svg>
