<svg width="25" height="24" viewBox="0 0 25 24" fill="none" xmlns="http://www.w3.org/2000/svg">
<path fill-rule="evenodd" clip-rule="evenodd" d="M0.5 12C0.5 5.3835 5.8829 0 12.5 0C19.1165 0 24.5 5.3835 24.5 12C24.5 18.6165 19.1165 24 12.5 24C5.8835 24 0.5 18.6165 0.5 12ZM2.42 12C2.42 17.5584 6.9416 22.08 12.5 22.08C18.0581 22.08 22.58 17.5581 22.58 12C22.58 6.4419 18.0581 1.92 12.5 1.92C6.9419 1.92 2.42 6.4416 2.42 12ZM16.2788 14.2614C16.527 14.2045 16.7876 14.2485 17.0033 14.3838C17.2189 14.519 17.3721 14.7342 17.4291 14.9822C17.486 15.2303 17.4422 15.4908 17.3072 15.7065C16.0721 17.6751 14.4668 18.6651 12.5222 18.6651C12.0659 18.6624 11.6111 18.6122 11.1653 18.5151C8.8904 18.0315 7.7006 15.7266 7.6514 15.6291C7.54738 15.4037 7.53472 15.1468 7.61608 14.9122C7.69744 14.6777 7.86649 14.4838 8.08774 14.3712C8.309 14.2587 8.56526 14.2362 8.80274 14.3085C9.04021 14.3808 9.24045 14.5423 9.3614 14.7591C9.36156 14.7594 9.36186 14.7599 9.36229 14.7608C9.39526 14.8221 10.2168 16.3511 11.5637 16.6371C12.752 16.8909 14.294 16.8972 15.68 14.6871C15.8153 14.4714 16.0307 14.3183 16.2788 14.2614ZM10.1 8.8401C10.1 9.6354 9.4553 10.7601 8.66 10.7601C7.8647 10.7601 7.22 9.6354 7.22 8.8401C7.22 8.0448 7.8647 6.9201 8.66 6.9201C9.4553 6.9201 10.1 8.0448 10.1 8.8401ZM14.9 8.8404C14.9 8.0451 15.5447 6.9204 16.34 6.9204C17.1353 6.9204 17.78 8.0451 17.78 8.8404C17.78 9.6357 17.1353 10.7604 16.34 10.7604C15.5447 10.7604 14.9 9.6357 14.9 8.8404Z" fill="black"/>
</svg>
