<svg width="25" height="24" viewBox="0 0 25 24" fill="none" xmlns="http://www.w3.org/2000/svg">
<path d="M12.5 0C19.1274 0 24.5 5.37257 24.5 12C24.5 18.6274 19.1274 24 12.5 24C5.87257 24 0.5 18.6274 0.5 12C0.5 5.37257 5.87257 0 12.5 0ZM12.5 1.82143C6.87854 1.82143 2.32143 6.37854 2.32143 12C2.32143 17.6215 6.87854 22.1786 12.5 22.1786C18.1215 22.1786 22.6786 17.6215 22.6786 12C22.6786 6.37854 18.1215 1.82143 12.5 1.82143ZM12.4875 5.40327C12.9854 5.40161 13.3914 5.79986 13.4011 6.29587L13.4012 6.31093L13.4172 11.0694L18.1757 11.0854C18.6787 11.0871 19.0851 11.4962 19.0833 11.9991C19.0817 12.4971 18.6807 12.9003 18.1847 12.9067L18.1696 12.9068L13.4043 12.8908L13.4202 17.6562C13.4219 18.1592 13.0155 18.5683 12.5125 18.5699C12.0146 18.5716 11.6086 18.1734 11.5989 17.6773L11.5988 17.6623L11.5829 12.9037L6.82432 12.8878C6.32134 12.8862 5.91495 12.4771 5.91666 11.9741C5.91832 11.4762 6.3193 11.0729 6.81535 11.0665L6.8304 11.0664L11.5957 11.0823L11.5798 6.31701C11.5781 5.81405 11.9845 5.40496 12.4875 5.40327Z" fill="black"/>
</svg>
