<svg width="60" height="52" viewBox="0 0 60 52" fill="none" xmlns="http://www.w3.org/2000/svg">
<path d="M30.0543 28.8824C41.3232 28.8824 51.7846 33.9099 58.8162 42.413C59.7188 43.589 60.1302 45.0692 59.9638 46.5423C59.7974 48.0154 59.0661 49.3666 57.9239 50.3115C56.7816 51.2565 55.3174 51.7216 53.8392 51.609C52.361 51.4965 50.9841 50.815 49.9981 49.708C47.572 46.7686 44.5247 44.4034 41.0752 42.7826C37.6257 41.1618 33.8599 40.3257 30.0486 40.3345C26.2454 40.3273 22.4877 41.1614 19.0447 42.777C15.6017 44.3926 12.5586 46.7497 10.1335 49.6794C9.1631 50.8479 7.76821 51.5832 6.25571 51.7233C4.74321 51.8635 3.23699 51.397 2.0684 50.4266C0.899812 49.4562 0.164578 48.0613 0.0244419 46.5488C-0.115694 45.0363 0.350749 43.5301 1.32116 42.3615C4.82194 38.137 9.21289 34.7381 14.18 32.408C19.1472 30.0778 24.5678 28.874 30.0543 28.8824ZM9.9789 0.252319C11.4975 0.252319 12.954 0.855593 14.0278 1.92943C15.1016 3.00327 15.7049 4.4597 15.7049 5.97834V14.5674C15.7047 16.0859 15.1013 17.5421 14.0275 18.6157C12.9537 19.6894 11.4974 20.2925 9.9789 20.2925C8.46042 20.2925 7.00412 19.6894 5.9303 18.6157C4.85649 17.5421 4.25311 16.0859 4.25288 14.5674V5.97834C4.25288 4.4597 4.85616 3.00327 5.92999 1.92943C7.00383 0.855593 8.46027 0.252319 9.9789 0.252319ZM50.0611 0.252319C51.5797 0.252319 53.0361 0.855593 54.11 1.92943C55.1838 3.00327 55.7871 4.4597 55.7871 5.97834V14.5674C55.7869 16.0859 55.1835 17.5421 54.1097 18.6157C53.0359 19.6894 51.5796 20.2925 50.0611 20.2925C48.5426 20.2925 47.0863 19.6894 46.0125 18.6157C44.9387 17.5421 44.3353 16.0859 44.3351 14.5674V5.97834C44.3351 4.4597 44.9383 3.00327 46.0122 1.92943C47.086 0.855593 48.5424 0.252319 50.0611 0.252319Z" fill="#FF564F"/>
</svg>
