<svg width="28" height="28" viewBox="0 0 28 28" fill="none" xmlns="http://www.w3.org/2000/svg">
<path d="M1 14C1 21.1797 6.8203 27 14 27C21.1797 27 27 21.1797 27 14C27 6.8203 21.1797 1 14 1C6.8203 1 1 6.8203 1 14Z" stroke="black" stroke-width="2"/>
<path fill-rule="evenodd" clip-rule="evenodd" d="M14.8315 13.1779V7.75249C14.8315 7.34373 14.4878 7.00929 14.079 7H13.9304C13.5123 7 13.1779 7.34373 13.1779 7.75249V13.1779H7.75249C7.33444 13.1779 7 13.5216 7 13.9304V14.079C7 14.497 7.34373 14.8315 7.75249 14.8315H13.1779V20.2475C13.1779 20.6656 13.5216 21 13.9304 21H14.079C14.497 21 14.8315 20.6563 14.8315 20.2475V14.8315H20.2568C20.6656 14.8315 21 14.4878 21 14.079V13.9304C21 13.5123 20.6563 13.1779 20.2475 13.1779H14.8315Z" fill="#FF8D1A"/>
</svg>
