<svg width="28" height="28" viewBox="0 0 28 28" fill="none" xmlns="http://www.w3.org/2000/svg">
<path d="M1 14C1 21.1797 6.8203 27 14 27C21.1797 27 27 21.1797 27 14C27 6.8203 21.1797 1 14 1C6.8203 1 1 6.8203 1 14Z" stroke="black" stroke-width="2"/>
<path d="M21.1477 10.2147C21.1647 9.99735 21.1004 9.78379 20.9681 9.6137C20.7735 9.36235 20.2065 8.71412 19.1595 8.12448C17.8385 7.37798 16.2661 7 14.4839 7C12.7018 7 11.1332 7.37798 9.81971 8.12448C8.77839 8.71601 8.21709 9.36613 8.02433 9.61748C7.89392 9.78757 7.83156 9.99924 7.84857 10.2128V10.2204L8.68767 18.4149C8.71602 18.721 8.90501 18.9913 9.18282 19.1217C9.23385 19.1463 9.33779 19.203 9.45875 19.2672C10.3508 19.7472 12.4372 20.8717 14.5142 20.8717C16.5855 20.8717 18.6511 19.7491 19.5318 19.271C19.6546 19.2048 19.7605 19.1463 19.8115 19.1217C20.0893 18.9913 20.2783 18.721 20.3067 18.4149L21.1458 10.2298L21.1477 10.2147ZM18.9781 18.0237C18.9478 18.0407 18.9157 18.0577 18.8817 18.0766C18.0917 18.5056 16.2396 19.5129 14.5142 19.5129C12.7812 19.5129 10.9064 18.5037 10.1051 18.0709C10.073 18.0539 10.0446 18.0388 10.0163 18.0237L9.2244 10.3016C9.42284 10.0786 9.82916 9.68552 10.4906 9.30943C11.5962 8.6801 12.9399 8.3626 14.482 8.3626C16.0261 8.3626 17.3736 8.68199 18.4886 9.31132C19.1557 9.68741 19.5677 10.0824 19.7699 10.3073L18.9781 18.0237ZM6.18925 13.6165C6.03995 13.6165 5.94924 13.7828 6.0305 13.9075L6.91119 15.2777C6.95088 15.34 6.95088 15.4194 6.91119 15.4818L6.0305 16.8519C5.94924 16.9786 6.03995 17.143 6.18925 17.143H8.17741L7.81644 13.6146H6.18925V13.6165ZM22.0888 15.4818C22.0491 15.4194 22.0491 15.34 22.0888 15.2777L22.9695 13.9075C23.0508 13.7809 22.96 13.6165 22.8107 13.6165H21.1779L20.8169 17.1449H22.8107C22.96 17.1449 23.0508 16.9786 22.9695 16.8538L22.0888 15.4818Z" fill="#FF8D1A"/>
<path d="M12.5468 11.5262H11.1861L10.8081 15.8503H13.9321L14.3101 14.4896H12.3068L12.5468 11.5262ZM16.2283 13.5749L15.6594 11.5262H14.3101L15.2815 15.8503H16.5647L18.5642 11.5262H17.1109L16.2283 13.5749Z" fill="#FF8D1A"/>
</svg>
