<svg width="51" height="50" viewBox="0 0 51 50" fill="none" xmlns="http://www.w3.org/2000/svg">
<rect x="0.5" width="50" height="50" rx="25" fill="white"/>
<mask id="path-2-inside-1_326_11352" fill="white">
<path d="M18.9195 24.597H22.4215C24.0596 24.597 24.841 23.8076 24.841 22.1037V18.5707C24.841 16.8668 24.0596 16.0677 22.4215 16.0677H18.9195C17.2814 16.0677 16.5 16.8668 16.5 18.5707V22.1037C16.5 23.8076 17.2814 24.597 18.9195 24.597ZM28.5785 24.597H32.0805C33.7186 24.597 34.5 23.8076 34.5 22.1037V18.5707C34.5 16.8668 33.7186 16.0677 32.0805 16.0677H28.5785C26.9404 16.0677 26.159 16.8668 26.159 18.5707V22.1037C26.159 23.8076 26.9404 24.597 28.5785 24.597ZM18.7971 22.7872C18.4299 22.7872 18.2699 22.6139 18.2699 22.2385V18.4263C18.2699 18.0509 18.4299 17.8776 18.7971 17.8776H22.5439C22.9017 17.8776 23.0711 18.0509 23.0711 18.4263V22.2385C23.0711 22.6139 22.9017 22.7872 22.5439 22.7872H18.7971ZM28.4561 22.7872C28.0889 22.7872 27.9289 22.6139 27.9289 22.2385V18.4263C27.9289 18.0509 28.0889 17.8776 28.4561 17.8776H32.2029C32.5701 17.8776 32.7301 18.0509 32.7301 18.4263V22.2385C32.7301 22.6139 32.5701 22.7872 32.2029 22.7872H28.4561ZM19.7667 21.4683H21.5649C21.7155 21.4683 21.7814 21.4106 21.7814 21.2181V19.4371C21.7814 19.2638 21.7155 19.1964 21.5649 19.1964H19.7667C19.6067 19.1964 19.5596 19.2638 19.5596 19.4371V21.2181C19.5596 21.4106 19.6067 21.4683 19.7667 21.4683ZM29.454 21.4683H31.2521C31.4121 21.4683 31.478 21.4106 31.478 21.2181V19.4371C31.478 19.2638 31.4121 19.1964 31.2521 19.1964H29.454C29.3033 19.1964 29.2469 19.2638 29.2469 19.4371V21.2181C29.2469 21.4106 29.3033 21.4683 29.454 21.4683ZM18.9195 34.4741H22.4215C24.0596 34.4741 24.841 33.6847 24.841 31.9807V28.4477C24.841 26.7438 24.0596 25.9448 22.4215 25.9448H18.9195C17.2814 25.9448 16.5 26.7438 16.5 28.4477V31.9807C16.5 33.6847 17.2814 34.4741 18.9195 34.4741ZM26.8556 28.6499H28.6538C28.8138 28.6499 28.8797 28.5921 28.8797 28.3996V26.6186C28.8797 26.4454 28.8138 26.378 28.6538 26.378H26.8556C26.705 26.378 26.6485 26.4454 26.6485 26.6186V28.3996C26.6485 28.5921 26.705 28.6499 26.8556 28.6499ZM31.9676 28.6499H33.7657C33.9257 28.6499 33.9822 28.5921 33.9822 28.3996V26.6186C33.9822 26.4454 33.9257 26.378 33.7657 26.378H31.9676C31.8169 26.378 31.7605 26.4454 31.7605 26.6186V28.3996C31.7605 28.5921 31.8169 28.6499 31.9676 28.6499ZM18.7971 32.6642C18.4299 32.6642 18.2699 32.491 18.2699 32.1251V28.313C18.2699 27.9279 18.4299 27.7546 18.7971 27.7546H22.5439C22.9017 27.7546 23.0711 27.9279 23.0711 28.313V32.1251C23.0711 32.491 22.9017 32.6642 22.5439 32.6642H18.7971ZM29.4351 31.2684H31.2333C31.3933 31.2684 31.4592 31.201 31.4592 31.0181V29.2275C31.4592 29.0542 31.3933 28.9868 31.2333 28.9868H29.4351C29.2845 28.9868 29.228 29.0542 29.228 29.2275V31.0181C29.228 31.201 29.2845 31.2684 29.4351 31.2684ZM19.7667 31.3454H21.5649C21.7155 31.3454 21.7814 31.2876 21.7814 31.0951V29.3141C21.7814 29.1409 21.7155 29.0735 21.5649 29.0735H19.7667C19.6067 29.0735 19.5596 29.1409 19.5596 29.3141V31.0951C19.5596 31.2876 19.6067 31.3454 19.7667 31.3454ZM26.8556 33.8772H28.6538C28.8138 33.8772 28.8797 33.8098 28.8797 33.6269V31.846C28.8797 31.6631 28.8138 31.6053 28.6538 31.6053H26.8556C26.705 31.6053 26.6485 31.6631 26.6485 31.846V33.6269C26.6485 33.8098 26.705 33.8772 26.8556 33.8772ZM31.9676 33.8772H33.7657C33.9257 33.8772 33.9822 33.8098 33.9822 33.6269V31.846C33.9822 31.6631 33.9257 31.6053 33.7657 31.6053H31.9676C31.8169 31.6053 31.7605 31.6631 31.7605 31.846V33.6269C31.7605 33.8098 31.8169 33.8772 31.9676 33.8772Z"/>
</mask>
<path d="M18.9195 24.597H22.4215C24.0596 24.597 24.841 23.8076 24.841 22.1037V18.5707C24.841 16.8668 24.0596 16.0677 22.4215 16.0677H18.9195C17.2814 16.0677 16.5 16.8668 16.5 18.5707V22.1037C16.5 23.8076 17.2814 24.597 18.9195 24.597ZM28.5785 24.597H32.0805C33.7186 24.597 34.5 23.8076 34.5 22.1037V18.5707C34.5 16.8668 33.7186 16.0677 32.0805 16.0677H28.5785C26.9404 16.0677 26.159 16.8668 26.159 18.5707V22.1037C26.159 23.8076 26.9404 24.597 28.5785 24.597ZM18.7971 22.7872C18.4299 22.7872 18.2699 22.6139 18.2699 22.2385V18.4263C18.2699 18.0509 18.4299 17.8776 18.7971 17.8776H22.5439C22.9017 17.8776 23.0711 18.0509 23.0711 18.4263V22.2385C23.0711 22.6139 22.9017 22.7872 22.5439 22.7872H18.7971ZM28.4561 22.7872C28.0889 22.7872 27.9289 22.6139 27.9289 22.2385V18.4263C27.9289 18.0509 28.0889 17.8776 28.4561 17.8776H32.2029C32.5701 17.8776 32.7301 18.0509 32.7301 18.4263V22.2385C32.7301 22.6139 32.5701 22.7872 32.2029 22.7872H28.4561ZM19.7667 21.4683H21.5649C21.7155 21.4683 21.7814 21.4106 21.7814 21.2181V19.4371C21.7814 19.2638 21.7155 19.1964 21.5649 19.1964H19.7667C19.6067 19.1964 19.5596 19.2638 19.5596 19.4371V21.2181C19.5596 21.4106 19.6067 21.4683 19.7667 21.4683ZM29.454 21.4683H31.2521C31.4121 21.4683 31.478 21.4106 31.478 21.2181V19.4371C31.478 19.2638 31.4121 19.1964 31.2521 19.1964H29.454C29.3033 19.1964 29.2469 19.2638 29.2469 19.4371V21.2181C29.2469 21.4106 29.3033 21.4683 29.454 21.4683ZM18.9195 34.4741H22.4215C24.0596 34.4741 24.841 33.6847 24.841 31.9807V28.4477C24.841 26.7438 24.0596 25.9448 22.4215 25.9448H18.9195C17.2814 25.9448 16.5 26.7438 16.5 28.4477V31.9807C16.5 33.6847 17.2814 34.4741 18.9195 34.4741ZM26.8556 28.6499H28.6538C28.8138 28.6499 28.8797 28.5921 28.8797 28.3996V26.6186C28.8797 26.4454 28.8138 26.378 28.6538 26.378H26.8556C26.705 26.378 26.6485 26.4454 26.6485 26.6186V28.3996C26.6485 28.5921 26.705 28.6499 26.8556 28.6499ZM31.9676 28.6499H33.7657C33.9257 28.6499 33.9822 28.5921 33.9822 28.3996V26.6186C33.9822 26.4454 33.9257 26.378 33.7657 26.378H31.9676C31.8169 26.378 31.7605 26.4454 31.7605 26.6186V28.3996C31.7605 28.5921 31.8169 28.6499 31.9676 28.6499ZM18.7971 32.6642C18.4299 32.6642 18.2699 32.491 18.2699 32.1251V28.313C18.2699 27.9279 18.4299 27.7546 18.7971 27.7546H22.5439C22.9017 27.7546 23.0711 27.9279 23.0711 28.313V32.1251C23.0711 32.491 22.9017 32.6642 22.5439 32.6642H18.7971ZM29.4351 31.2684H31.2333C31.3933 31.2684 31.4592 31.201 31.4592 31.0181V29.2275C31.4592 29.0542 31.3933 28.9868 31.2333 28.9868H29.4351C29.2845 28.9868 29.228 29.0542 29.228 29.2275V31.0181C29.228 31.201 29.2845 31.2684 29.4351 31.2684ZM19.7667 31.3454H21.5649C21.7155 31.3454 21.7814 31.2876 21.7814 31.0951V29.3141C21.7814 29.1409 21.7155 29.0735 21.5649 29.0735H19.7667C19.6067 29.0735 19.5596 29.1409 19.5596 29.3141V31.0951C19.5596 31.2876 19.6067 31.3454 19.7667 31.3454ZM26.8556 33.8772H28.6538C28.8138 33.8772 28.8797 33.8098 28.8797 33.6269V31.846C28.8797 31.6631 28.8138 31.6053 28.6538 31.6053H26.8556C26.705 31.6053 26.6485 31.6631 26.6485 31.846V33.6269C26.6485 33.8098 26.705 33.8772 26.8556 33.8772ZM31.9676 33.8772H33.7657C33.9257 33.8772 33.9822 33.8098 33.9822 33.6269V31.846C33.9822 31.6631 33.9257 31.6053 33.7657 31.6053H31.9676C31.8169 31.6053 31.7605 31.6631 31.7605 31.846V33.6269C31.7605 33.8098 31.8169 33.8772 31.9676 33.8772Z" fill="#8A8A8E" stroke="white" stroke-width="0.6" mask="url(#path-2-inside-1_326_11352)"/>
</svg>
