<svg width="20" height="20" viewBox="0 0 20 20" fill="none" xmlns="http://www.w3.org/2000/svg">
<path fill-rule="evenodd" clip-rule="evenodd" d="M19.2 10C19.2 4.69809 14.9019 0.400024 9.59995 0.400024C4.30056 0.406149 0.00607491 4.70063 -4.95911e-05 10C-4.95911e-05 15.302 4.29802 19.6 9.59995 19.6C14.9019 19.6 19.2 15.302 19.2 10ZM8.8962 15.4H8.83291C6.44246 15.4 5.42006 14.3776 5.42006 11.9872V8.81287C5.42006 6.42242 6.44246 5.40002 8.83291 5.40002H8.8962C11.0724 5.40002 12.1192 6.26663 12.2847 8.20431C12.2993 8.40392 12.1533 8.58405 11.9488 8.59866C11.7443 8.61813 11.5739 8.46721 11.5496 8.2676C11.4181 6.70966 10.6976 6.13031 8.89133 6.13031H8.82804C6.84654 6.13031 6.14547 6.83138 6.14547 8.81287V11.9872C6.14547 13.9687 6.84654 14.6697 8.82804 14.6697H8.89133C10.6878 14.6697 11.4084 14.1001 11.5496 12.5714C11.569 12.3718 11.754 12.2209 11.9488 12.2403C12.1533 12.2598 12.2993 12.4399 12.2798 12.6396C12.0997 14.548 11.0578 15.4 8.8962 15.4ZM14.1548 10.7651H14.4909C14.6905 10.7651 14.856 10.5996 14.856 10.4C14.856 10.2004 14.6905 10.0349 14.4909 10.0349H14.1547L14.5199 10.4L14.1548 10.7651ZM8.95047 10.7651H14.1548L13.147 11.773C13.0058 11.9141 13.0058 12.1478 13.147 12.289C13.2151 12.362 13.3125 12.3961 13.405 12.3961C13.4975 12.3961 13.59 12.362 13.663 12.289L15.294 10.6581C15.4352 10.5169 15.4352 10.2832 15.294 10.142L13.663 8.51102C13.5219 8.36984 13.2882 8.36984 13.147 8.51102C13.0058 8.65221 13.0058 8.8859 13.147 9.02709L14.1547 10.0349H8.95047C8.75086 10.0349 8.58533 10.2004 8.58533 10.4C8.58533 10.5996 8.75086 10.7651 8.95047 10.7651Z" fill="#FF564F"/>
</svg>
