<svg width="40" height="42" viewBox="0 0 40 42" fill="none" xmlns="http://www.w3.org/2000/svg">
<path d="M8.5327 6.04797C7.19202 6.98347 6.0003 8.04409 4.95755 9.22389C3.91479 10.4097 3.021 11.6848 2.27618 13.0553C1.53136 14.4257 0.965291 15.8796 0.577983 17.417C0.190675 18.9483 0 20.5035 0 22.0825C0 24.7996 0.530315 27.3499 1.58498 29.7274C2.64561 32.1108 4.07567 34.1844 5.87517 35.9482C7.68062 37.7179 9.79592 39.1181 12.2211 40.1549C14.6462 41.1917 17.2501 41.7101 20.0209 41.7101C22.7618 41.7101 25.3478 41.1917 27.773 40.1549C30.2041 39.1181 32.3253 37.7179 34.1427 35.9482C35.9601 34.1785 37.3901 32.1049 38.4329 29.7274C39.4756 27.344 40 24.7996 40 22.0825C40 20.5333 39.8153 19.0139 39.4399 17.5242C39.0645 16.0346 38.5401 14.6164 37.8549 13.2757C37.1697 11.9351 36.3176 10.6778 35.3046 9.50991C34.2917 8.34202 33.1595 7.28735 31.9082 6.35781C31.2528 5.89304 30.5437 5.71429 29.787 5.83346C29.0302 5.95263 28.4105 6.3161 27.9339 6.92984C27.4572 7.54357 27.2784 8.22881 27.3976 8.99151C27.5168 9.74825 27.8921 10.362 28.5178 10.8327C30.3948 12.1794 31.8308 13.8239 32.8318 15.7843C33.8269 17.7387 34.3274 19.8421 34.3274 22.0944C34.3274 24.0191 33.958 25.8424 33.2072 27.5466C32.4624 29.2567 31.4435 30.7463 30.1445 32.0155C28.8455 33.2847 27.3261 34.2917 25.5862 35.0365C23.8403 35.7813 21.9872 36.1508 20.0209 36.1508C18.0545 36.1508 16.2014 35.7813 14.4555 35.0365C12.7097 34.2917 11.1902 33.2847 9.89721 32.0155C8.6042 30.7463 7.57336 29.2567 6.81067 27.5466C6.04797 25.8364 5.67258 24.0191 5.67258 22.0944C5.67258 19.8183 6.20885 17.6613 7.2814 15.6294C8.35394 13.5975 9.86146 11.9291 11.798 10.6122C12.4534 10.1713 12.8467 9.57545 12.9838 8.81871C13.1208 8.06197 12.9599 7.35886 12.513 6.71533C12.0661 6.10159 11.4524 5.73216 10.6778 5.59511C9.90317 5.45211 9.18814 5.60703 8.5327 6.04797ZM20.0209 22.2136C20.7955 22.2136 21.4569 21.9455 22.011 21.4032C22.5652 20.861 22.8393 20.2115 22.8393 19.4548V2.8065C22.8393 2.04975 22.5652 1.38835 22.011 0.834202C21.4569 0.280054 20.7955 0 20.0209 0C19.2164 0 18.5372 0.280054 17.989 0.834202C17.4348 1.38835 17.1607 2.0438 17.1607 2.8065V19.4548C17.1607 20.2115 17.4348 20.867 17.989 21.4032C18.5372 21.9455 19.2164 22.2136 20.0209 22.2136Z" fill="#FF564F"/>
</svg>
