<svg width="20" height="20" viewBox="0 0 20 20" fill="none" xmlns="http://www.w3.org/2000/svg">
<path fill-rule="evenodd" clip-rule="evenodd" d="M9.6 19.6C14.9019 19.6 19.2 15.302 19.2 10C19.2 4.69809 14.9019 0.400024 9.6 0.400024C4.29807 0.400024 0 4.69809 0 10C0 15.302 4.29807 19.6 9.6 19.6ZM6.78751 8.02147C6.86379 7.13572 7.12472 6.56236 7.56903 6.20185C8.02023 5.83573 8.70747 5.65002 9.72304 5.65002H9.78971C10.9111 5.65002 11.6314 5.87608 12.0777 6.32231C12.5239 6.76855 12.75 7.48885 12.75 8.61028V11.9539C12.75 13.0753 12.5239 13.7956 12.0777 14.2418C11.6314 14.6881 10.9111 14.9141 9.78971 14.9141H9.72304C8.71509 14.9141 8.03082 14.731 7.57986 14.3702C7.13612 14.0152 6.87354 13.4515 6.79248 12.582C6.77967 12.4445 6.65783 12.3434 6.52036 12.3562C6.38288 12.3691 6.28183 12.4909 6.29464 12.6284C6.38281 13.5742 6.6792 14.29 7.26751 14.7606C7.84859 15.2255 8.66945 15.4141 9.72304 15.4141H9.78971C10.9606 15.4141 11.8454 15.1812 12.4312 14.5954C13.017 14.0096 13.25 13.1248 13.25 11.9539V8.61028C13.25 7.4394 13.017 6.55458 12.4312 5.96876C11.8454 5.38294 10.9606 5.15002 9.78971 5.15002H9.72304C8.66169 5.15002 7.83611 5.34124 7.25398 5.81359C6.66496 6.29153 6.37206 7.01818 6.28936 7.97858C6.27751 8.11614 6.37942 8.23726 6.51698 8.2491C6.65455 8.26095 6.77567 8.15903 6.78751 8.02147ZM2.75 10.277C2.75 10.1389 2.86193 10.027 3 10.027H9.57599L9.82589 10.2769L9.57579 10.527H3C2.86193 10.527 2.75 10.415 2.75 10.277ZM9.57579 10.527L8.28471 11.818C8.18708 11.9157 8.18708 12.074 8.28471 12.1716C8.38235 12.2692 8.54064 12.2692 8.63827 12.1716L10.3562 10.4536C10.4031 10.4068 10.4294 10.3432 10.4294 10.2769C10.4294 10.2106 10.4031 10.147 10.3562 10.1001L8.63827 8.38214C8.54064 8.28451 8.38235 8.28451 8.28471 8.38214C8.18708 8.47977 8.18708 8.63807 8.28471 8.7357L9.57599 10.027H9.60513C9.7432 10.027 9.85513 10.1389 9.85513 10.277C9.85513 10.415 9.7432 10.527 9.60513 10.527H9.57579Z" fill="#007AFF"/>
</svg>
