<svg width="16" height="15" viewBox="0 0 16 15" fill="none" xmlns="http://www.w3.org/2000/svg">
<path d="M5.73871 7.21154C5.73871 7.4028 5.81773 7.58623 5.95838 7.72147C6.09904 7.85671 6.2898 7.93269 6.48871 7.93269L12.4887 7.93269L12.4887 10.1466C12.4887 10.2356 12.5229 10.3213 12.5847 10.3875L12.6357 10.4329C12.6749 10.4617 12.7195 10.4827 12.7671 10.4949C12.8147 10.5071 12.8644 10.5101 12.9132 10.5038C12.962 10.4975 13.0091 10.482 13.0517 10.4582C13.0943 10.4344 13.1316 10.4028 13.1615 10.3651L15.3845 7.56418C15.4595 7.46972 15.5001 7.3541 15.5 7.23521C15.4999 7.11633 15.459 7.0008 15.3837 6.90649L13.16 4.12644C13.1122 4.06689 13.0463 4.02318 12.9714 4.00142C12.8966 3.97967 12.8165 3.98096 12.7425 4.00512C12.6684 4.02928 12.6041 4.0751 12.5584 4.13616C12.5128 4.19722 12.4882 4.27048 12.488 4.34567L12.488 6.49038L6.48797 6.49038C6.28905 6.49038 6.09829 6.56636 5.95763 6.7016C5.81698 6.83685 5.73871 7.02028 5.73871 7.21154ZM10.9835 11.0935C10.9609 10.911 10.8667 10.7436 10.7201 10.6257C10.5735 10.5077 10.3856 10.448 10.1948 10.4588C10.0039 10.4695 9.82458 10.55 9.69335 10.6836C9.56212 10.8173 9.48893 10.9941 9.48871 11.1779L9.48871 12.9808L1.98872 12.9808L1.98872 1.44231L9.48871 1.44231L9.48871 3.24519C9.48871 3.43645 9.56773 3.61988 9.70838 3.75512C9.84904 3.89037 10.0398 3.96635 10.2387 3.96635C10.4376 3.96635 10.6284 3.89037 10.769 3.75512C10.9097 3.61988 10.9887 3.43645 10.9887 3.24519L10.9887 1.44231C10.9887 1.2529 10.9499 1.06535 10.8745 0.89036C10.7992 0.715371 10.6887 0.556372 10.5494 0.422442C10.4101 0.288511 10.2447 0.182272 10.0627 0.109789C9.88075 0.0373061 9.6857 -2.56371e-07 9.48871 -2.62762e-07L1.98872 -5.90597e-07C1.79173 -6.01427e-07 1.59668 0.0373058 1.41469 0.109789C1.2327 0.182271 1.06734 0.288511 0.928056 0.422441C0.788768 0.556372 0.678279 0.715371 0.602897 0.89036C0.527515 1.06535 0.488716 1.2529 0.488716 1.44231L0.488716 12.9808C0.488716 13.1702 0.527514 13.3577 0.602896 13.5327C0.678278 13.7077 0.788767 13.8667 0.928055 14.0006C1.06734 14.1346 1.2327 14.2408 1.41469 14.3133C1.59668 14.3858 1.79173 14.4231 1.98872 14.4231L9.48871 14.4231C9.6857 14.4231 9.88075 14.3858 10.0627 14.3133C10.2447 14.2408 10.4101 14.1346 10.5494 14.0006C10.6887 13.8667 10.7992 13.7077 10.8745 13.5327C10.9499 13.3577 10.9887 13.1702 10.9887 12.9808L10.9887 11.1779L10.9835 11.0935Z" fill="black"/>
</svg>
