<svg width="28" height="28" viewBox="0 0 28 28" fill="none" xmlns="http://www.w3.org/2000/svg">
<path d="M1 14C1 21.1797 6.8203 27 14 27C21.1797 27 27 21.1797 27 14C27 6.8203 21.1797 1 14 1C6.8203 1 1 6.8203 1 14Z" stroke="black" stroke-width="2"/>
<path fill-rule="evenodd" clip-rule="evenodd" d="M8.1272 18.3046C7.70743 17.8031 7.36123 17.2442 7.09905 16.6449C7.00318 16.4288 6.97607 16.1883 7.02139 15.9562C7.06671 15.7241 7.18227 15.5116 7.35239 15.3475C7.71125 14.9903 7.91414 14.5055 7.91664 13.999C7.9137 13.493 7.71085 13.0088 7.35239 12.6521C7.18227 12.488 7.06671 12.2754 7.02139 12.0433C6.97607 11.8112 7.00318 11.5708 7.09905 11.3546C7.3597 10.7556 7.70423 10.1968 8.12227 9.69494C8.27616 9.51488 8.47616 9.38019 8.70079 9.30535C8.92541 9.2305 9.16616 9.21833 9.39718 9.27014C9.928 9.38262 10.4815 9.3039 10.96 9.04786C11.4186 8.8059 11.7675 8.39773 11.9355 7.90682C12.0112 7.68168 12.1495 7.48288 12.3343 7.33382C12.5191 7.18475 12.7426 7.09164 12.9784 7.06545C13.6539 6.97818 14.3378 6.97818 15.0134 7.06545C15.2478 7.09312 15.4695 7.18691 15.6527 7.33587C15.8359 7.48484 15.973 7.68284 16.0481 7.90682C16.2188 8.39973 16.5721 8.8082 17.0351 9.04786C17.5118 9.30234 18.0626 9.38102 18.5913 9.27014C18.8221 9.21883 19.0625 9.23126 19.2867 9.30608C19.511 9.3809 19.7107 9.51531 19.8646 9.69494C20.2873 10.1959 20.6362 10.7548 20.901 11.3546C20.9968 11.5708 21.0239 11.8112 20.9786 12.0433C20.9333 12.2754 20.8177 12.488 20.6476 12.6521C20.4689 12.828 20.327 13.0378 20.2301 13.2692C20.1332 13.5005 20.0833 13.7489 20.0833 13.9998C20.0833 14.2507 20.1332 14.499 20.2301 14.7304C20.327 14.9618 20.4689 15.1715 20.6476 15.3475C20.8177 15.5116 20.9333 15.7241 20.9786 15.9562C21.0239 16.1883 20.9968 16.4288 20.901 16.6449C20.6388 17.2442 20.2926 17.8031 19.8728 18.3046C19.7187 18.4844 19.5187 18.6189 19.2941 18.6937C19.0696 18.7685 18.8289 18.7809 18.5979 18.7294C18.0671 18.6169 17.5136 18.6957 17.0351 18.9517C16.5718 19.191 16.2184 19.5996 16.0481 20.0927C15.9727 20.3174 15.8348 20.5159 15.6506 20.6649C15.4665 20.8139 15.2437 20.9073 15.0084 20.9341C14.333 21.022 13.649 21.022 12.9735 20.9341C12.7385 20.907 12.5161 20.8135 12.3322 20.6645C12.1484 20.5155 12.0108 20.3172 11.9355 20.0927C11.7692 19.6024 11.422 19.1942 10.9649 18.9517C10.4859 18.6953 9.93182 18.6165 9.40047 18.7294C9.16969 18.7807 8.92933 18.7683 8.70506 18.6935C8.4808 18.6187 8.28106 18.4843 8.1272 18.3046ZM19.1391 12.8479C19.2914 12.4818 19.5144 12.1494 19.7955 11.87V11.8667C19.807 11.8552 19.8317 11.8255 19.8185 11.7976C19.5988 11.2965 19.3091 10.8291 18.9582 10.4095C18.9418 10.3945 18.9219 10.3838 18.9003 10.3786C18.8787 10.3734 18.8562 10.3739 18.8348 10.3799C18.0281 10.5504 17.1872 10.4297 16.461 10.0391C15.7456 9.66131 15.2017 9.02388 14.941 8.25753C14.9355 8.23938 14.9248 8.22326 14.9101 8.21124C14.8955 8.19922 14.8776 8.19183 14.8587 8.19002C14.2859 8.11592 13.7059 8.11592 13.1331 8.19002C13.1142 8.19183 13.0963 8.19922 13.0817 8.21124C13.067 8.22326 13.0563 8.23938 13.0508 8.25753C12.7901 9.02388 12.2462 9.66131 11.5308 10.0391C10.804 10.4298 9.96254 10.5505 9.15535 10.3799C9.13422 10.374 9.11194 10.3736 9.09063 10.3788C9.06932 10.384 9.04969 10.3946 9.03362 10.4095C8.68274 10.8295 8.39257 11.2968 8.17162 11.7976C8.1601 11.8255 8.18478 11.8552 8.19629 11.8667C8.76361 12.4303 9.08529 13.1956 9.0912 13.9957C9.09033 14.7985 8.77148 15.5682 8.20452 16.1361C8.193 16.1477 8.16833 16.1773 8.17984 16.2053C8.4008 16.7061 8.69097 17.1733 9.04185 17.5933C9.05817 17.6084 9.07808 17.619 9.09968 17.6242C9.12127 17.6294 9.14384 17.629 9.16522 17.623C9.40218 17.5731 9.64362 17.5477 9.88575 17.5472C10.46 17.5486 11.025 17.6917 11.5308 17.9638C12.2462 18.3415 12.7901 18.979 13.0508 19.7453C13.0563 19.7635 13.067 19.7796 13.0817 19.7916C13.0963 19.8036 13.1142 19.811 13.1331 19.8128C13.7059 19.8869 14.2859 19.8869 14.8587 19.8128C14.8776 19.811 14.8955 19.8036 14.9101 19.7916C14.9248 19.7796 14.9355 19.7635 14.941 19.7453C15.2017 18.979 15.7456 18.3415 16.461 17.9638C17.1872 17.5732 18.0281 17.4524 18.8348 17.623C18.8562 17.629 18.8787 17.6294 18.9003 17.6242C18.9219 17.619 18.9418 17.6084 18.9582 17.5933C19.309 17.1733 19.5992 16.7061 19.8202 16.2053C19.8317 16.1773 19.807 16.1477 19.7955 16.1361C19.5144 15.8567 19.2914 15.5244 19.1391 15.1583C18.9869 14.7922 18.9086 14.3996 18.9086 14.0031C18.9086 13.6066 18.9869 13.2139 19.1391 12.8479ZM12.429 11.6548C12.8927 11.345 13.4377 11.1798 13.9952 11.1801C14.7418 11.181 15.4577 11.4782 15.9857 12.0067C16.5136 12.5351 16.8106 13.2516 16.8115 13.999C16.8118 14.5569 16.6468 15.1025 16.3373 15.5666C16.0278 16.0306 15.5877 16.3924 15.0727 16.6061C14.5577 16.8198 13.991 16.8758 13.4442 16.767C12.8974 16.6582 12.3951 16.3895 12.0009 15.995C11.6067 15.6004 11.3383 15.0977 11.2296 14.5505C11.121 14.0032 11.1769 13.4359 11.3904 12.9205C11.6039 12.405 11.9653 11.9646 12.429 11.6548ZM15.3952 14.9352C15.58 14.658 15.6784 14.3322 15.6781 13.999C15.6772 13.5526 15.4996 13.1249 15.1841 12.8095C14.8686 12.494 14.4411 12.3166 13.9952 12.3162C13.6623 12.3162 13.3368 12.415 13.0601 12.6002C12.7833 12.7854 12.5676 13.0485 12.4402 13.3564C12.3129 13.6643 12.2797 14.003 12.3448 14.3298C12.4098 14.6566 12.5703 14.9567 12.8058 15.1922C13.0413 15.4277 13.3413 15.588 13.6679 15.6528C13.9944 15.7176 14.3329 15.684 14.6403 15.5563C14.9478 15.4286 15.2105 15.2124 15.3952 14.9352Z" fill="#FF8D1A"/>
</svg>
