<svg width="30" height="35" viewBox="0 0 30 35" fill="none" xmlns="http://www.w3.org/2000/svg">
<path fill-rule="evenodd" clip-rule="evenodd" d="M28.4905 7.89322L16.5094 0.909917C16.0511 0.641432 15.5303 0.5 15 0.5C14.4698 0.5 13.9489 0.641432 13.4906 0.909917L1.50946 7.89322C1.04889 8.15906 0.666536 8.54313 0.401375 9.0063C0.136214 9.46946 -0.00227973 9.99514 2.61154e-05 10.5298V24.4726C-0.00227973 25.0073 0.136214 25.5329 0.401375 25.9961C0.666536 26.4592 1.04889 26.8433 1.50946 27.1092L6.98586 30.3015C7.02832 29.9452 7.07313 29.5438 7.1203 29.083L8.82548 14.8314C8.95303 13.8073 9.01056 12.7756 8.99766 11.7435H11.875H12.3656L10.1651 32.1519L13.4906 34.0901C13.9489 34.3586 14.4698 34.5 15 34.5C15.5303 34.5 16.0511 34.3586 16.5094 34.0901L28.4905 27.1068C28.9511 26.841 29.3335 26.4569 29.5987 25.9937C29.8638 25.5305 30.0023 25.0049 30 24.4702V10.5274C29.9955 9.99447 29.8541 9.47177 29.5896 9.01017C29.3251 8.54857 28.9465 8.16378 28.4905 7.89322ZM12.3608 18.3444L12.0424 21.3254H14.1391L14.0259 22.3587H15.0117L15.1084 21.3254H17.4669L17.3537 22.3587H18.3395L18.4362 21.3325C19.6603 21.3492 20.4763 21.3943 21.3537 21.4774V18.1948C19.9743 18.3159 18.5896 18.3659 17.2051 18.3444H12.3608ZM19.4976 10.8029L19.408 11.753C20.7172 11.7784 22.0268 11.7276 23.3302 11.601V14.9905C21.8926 14.8671 20.4497 14.8171 19.0071 14.8409H12.7358L13.0731 11.753H15.1344L15.2382 10.8029H16.1651L16.0778 11.753H18.467L18.5684 10.8029H19.4976Z" fill="#FF8D1A"/>
</svg>
