<svg width="51" height="50" viewBox="0 0 51 50" fill="none" xmlns="http://www.w3.org/2000/svg">
<rect x="0.5" width="50" height="50" rx="25" fill="white"/>
<path d="M27.3153 36.6983L25.4237 35.2034L23.3492 36.6831L20.6492 35.1576L18.5136 36.5763H18.3305C17.3237 36.5763 16.5 35.7525 16.5 34.7458V15.8305C16.5 14.8237 17.3237 14 18.3305 14H32.6695C33.6763 14 34.5 14.8237 34.5 15.8305V34.7458C34.5 35.7525 33.6763 36.5763 32.6695 36.5763H32.5017L30.0763 35.1424L27.3153 36.6983ZM30.061 33.7237L32.7915 35.3254C33.0661 35.2644 33.2644 35.0203 33.2644 34.7305V15.8153C33.2644 15.4797 32.9898 15.2051 32.6542 15.2051H18.3153C17.9797 15.2051 17.7051 15.4797 17.7051 15.8153V34.7305C17.7051 35.0203 17.9034 35.2492 18.1627 35.3254L20.5729 33.7085L23.2576 35.2339L25.4542 33.6627L27.422 35.2186L30.061 33.7237Z" fill="#8A8A8E"/>
<path d="M30.6712 20.8644H20.2984C19.8712 20.8644 19.5356 20.5288 19.5356 20.1017C19.5356 19.6746 19.8712 19.339 20.2984 19.339H30.6712C31.0984 19.339 31.434 19.6746 31.434 20.1017C31.434 20.5136 31.0984 20.8644 30.6712 20.8644ZM20.2984 23.3051H26.095C26.5221 23.3051 26.8577 23.6407 26.8577 24.0678C26.8577 24.4949 26.5221 24.8305 26.095 24.8305H20.2984C19.8712 24.8305 19.5356 24.4949 19.5356 24.0678C19.5356 23.6407 19.8712 23.3051 20.2984 23.3051Z" fill="#8A8A8E"/>
</svg>
