<svg width="22" height="23" viewBox="0 0 22 23" fill="none" xmlns="http://www.w3.org/2000/svg">
<path fill-rule="evenodd" clip-rule="evenodd" d="M1.77131 18.2644C1.11167 17.4763 0.567641 16.5981 0.155644 15.6563C0.00499508 15.3166 -0.0376111 14.9388 0.0336055 14.5741C0.104822 14.2093 0.286414 13.8754 0.553744 13.6174C1.11768 13.0563 1.4365 12.2943 1.44042 11.4984C1.43582 10.7033 1.11705 9.94243 0.553744 9.38187C0.286414 9.12396 0.104822 8.78998 0.0336055 8.42525C-0.0376111 8.06051 0.00499508 7.68268 0.155644 7.34301C0.565242 6.40167 1.10664 5.5235 1.76356 4.73491C2.00539 4.45196 2.31968 4.24031 2.67266 4.12269C3.02564 4.00508 3.40396 3.98595 3.76699 4.06736C4.60114 4.24412 5.47086 4.12041 6.2228 3.71807C6.94348 3.33784 7.49184 2.69644 7.75575 1.925C7.87466 1.57122 8.09211 1.25881 8.38247 1.02457C8.67283 0.790327 9.02402 0.644008 9.39468 0.602843C10.4562 0.465719 11.5309 0.465719 12.5924 0.602843C12.9608 0.646335 13.3092 0.793712 13.5971 1.0278C13.885 1.26188 14.1004 1.57304 14.2184 1.925C14.4867 2.69958 15.0419 3.34145 15.7695 3.71807C16.5185 4.11796 17.3841 4.2416 18.2149 4.06736C18.5776 3.98674 18.9553 4.00626 19.3077 4.12384C19.6601 4.24141 19.974 4.45263 20.2158 4.73491C20.88 5.52221 21.4284 6.40045 21.8444 7.34301C21.995 7.68268 22.0376 8.06051 21.9664 8.42525C21.8952 8.78998 21.7136 9.12396 21.4463 9.38187C21.1654 9.65831 20.9424 9.98793 20.7902 10.3515C20.6379 10.7151 20.5595 11.1054 20.5595 11.4997C20.5595 11.8939 20.6379 12.2842 20.7902 12.6478C20.9424 13.0114 21.1654 13.341 21.4463 13.6174C21.7136 13.8754 21.8952 14.2093 21.9664 14.5741C22.0376 14.9388 21.995 15.3166 21.8444 15.6563C21.4324 16.5981 20.8883 17.4763 20.2287 18.2644C19.9865 18.5469 19.6722 18.7582 19.3193 18.8758C18.9665 18.9934 18.5883 19.0128 18.2253 18.9319C17.3911 18.7552 16.5214 18.8789 15.7695 19.2812C15.0414 19.6572 14.486 20.2993 14.2184 21.0743C14.0999 21.4274 13.8832 21.7393 13.5938 21.9734C13.3045 22.2076 12.9544 22.3544 12.5847 22.3965C11.5232 22.5345 10.4484 22.5345 9.38693 22.3965C9.01765 22.3539 8.66812 22.2069 8.37925 21.9728C8.09037 21.7387 7.8741 21.427 7.75575 21.0743C7.49441 20.3038 6.94881 19.6624 6.23056 19.2812C5.47789 18.8783 4.60714 18.7546 3.77216 18.9319C3.40951 19.0126 3.0318 18.9931 2.67938 18.8755C2.32697 18.7579 2.01309 18.5467 1.77131 18.2644ZM19.0758 9.6895C19.315 9.11422 19.6655 8.59198 20.1072 8.15286V8.14769C20.1253 8.12957 20.1641 8.083 20.1434 8.03902C19.7981 7.25161 19.3429 6.51723 18.7914 5.85784C18.7658 5.83414 18.7345 5.81742 18.7005 5.80926C18.6666 5.80111 18.6311 5.8018 18.5975 5.81127C17.3299 6.07924 16.0085 5.88951 14.8673 5.27568C13.7431 4.68206 12.8884 3.68038 12.4787 2.47612C12.4701 2.44759 12.4532 2.42227 12.4302 2.40337C12.4072 2.38448 12.379 2.37288 12.3494 2.37003C11.4492 2.25359 10.5378 2.25359 9.63768 2.37003C9.60805 2.37288 9.57993 2.38448 9.55691 2.40337C9.53389 2.42227 9.51701 2.44759 9.50842 2.47612C9.09866 3.68038 8.24402 4.68206 7.11982 5.27568C5.97773 5.88969 4.65541 6.07942 3.38698 5.81127C3.35378 5.80202 3.31876 5.80145 3.28527 5.8096C3.25178 5.81775 3.22094 5.83436 3.19569 5.85784C2.64431 6.5178 2.18832 7.25204 1.84111 8.03902C1.82301 8.083 1.86179 8.12957 1.87988 8.14769C2.77139 9.0334 3.27688 10.236 3.28616 11.4932C3.28481 12.7548 2.78374 13.9644 1.89281 14.8568C1.87471 14.8749 1.83594 14.9215 1.85403 14.9655C2.20125 15.7524 2.65723 16.4867 3.20861 17.1466C3.23426 17.1703 3.26554 17.1871 3.29949 17.1952C3.33343 17.2034 3.36889 17.2027 3.40249 17.1932C3.77485 17.1149 4.15426 17.075 4.53475 17.0742C5.4371 17.0764 6.325 17.3012 7.11982 17.7288C8.24402 18.3224 9.09866 19.3241 9.50842 20.5284C9.51701 20.5569 9.53389 20.5822 9.55691 20.6011C9.57993 20.62 9.60805 20.6316 9.63768 20.6345C10.5378 20.7509 11.4492 20.7509 12.3494 20.6345C12.379 20.6316 12.4072 20.62 12.4302 20.6011C12.4532 20.5822 12.4701 20.5569 12.4787 20.5284C12.8884 19.3241 13.7431 18.3224 14.8673 17.7288C16.0085 17.115 17.3299 16.9252 18.5975 17.1932C18.6311 17.2027 18.6666 17.2034 18.7005 17.1952C18.7345 17.1871 18.7658 17.1703 18.7914 17.1466C19.3428 16.4867 19.7988 15.7524 20.146 14.9655C20.1641 14.9215 20.1253 14.8749 20.1072 14.8568C19.6655 14.4177 19.315 13.8954 19.0758 13.3202C18.8366 12.7449 18.7134 12.1279 18.7134 11.5048C18.7134 10.8817 18.8366 10.2648 19.0758 9.6895ZM8.53114 7.81462C9.25975 7.3278 10.1163 7.06822 10.9923 7.06873C12.1656 7.0701 13.2905 7.53723 14.1202 8.36765C14.9499 9.19807 15.4166 10.324 15.4179 11.4984C15.4184 12.3752 15.1591 13.2325 14.6727 13.9617C14.1863 14.691 13.4948 15.2595 12.6855 15.5953C11.8763 15.9311 10.9857 16.019 10.1264 15.8481C9.26721 15.6772 8.47794 15.255 7.85849 14.635C7.23904 14.015 6.81724 13.225 6.64645 12.365C6.47567 11.505 6.56358 10.6136 6.89907 9.80361C7.23455 8.99363 7.80253 8.30144 8.53114 7.81462ZM13.1924 12.9696C13.4827 12.534 13.6373 12.022 13.6368 11.4984C13.6355 10.797 13.3563 10.1248 12.8606 9.62914C12.3649 9.13345 11.693 8.85472 10.9923 8.85403C10.4692 8.85403 9.95776 9.00934 9.52281 9.3003C9.08787 9.59126 8.74891 10.0048 8.54883 10.4886C8.34875 10.9724 8.29653 11.5048 8.39878 12.0183C8.50103 12.5318 8.75315 13.0034 9.12325 13.3735C9.49336 13.7436 9.96481 13.9955 10.478 14.0973C10.9911 14.1991 11.5229 14.1464 12.0061 13.9456C12.4893 13.7449 12.9021 13.4052 13.1924 12.9696Z" fill="black"/>
</svg>
