<svg width="52" height="52" viewBox="0 0 52 52" fill="none" xmlns="http://www.w3.org/2000/svg">
<rect x="1" y="1" width="50" height="50" rx="25" fill="#00C147"/>
<path fill-rule="evenodd" clip-rule="evenodd" d="M32.462 27.9698L32.9349 28.3667L32.9108 28.3786C33.8797 29.3177 34.6495 30.4391 35.1749 31.6768C35.7003 32.9146 35.9708 34.2438 35.9705 35.5866V36.2216C35.9678 36.9577 35.6715 37.6629 35.1459 38.1833C34.6204 38.7038 33.9085 38.9974 33.1653 39H18.8208C18.0759 39 17.3614 38.7076 16.8337 38.1868C16.306 37.6661 16.0083 36.9594 16.0056 36.2216V35.5925C16.0036 34.2481 16.2729 32.9169 16.7976 31.6771C17.3224 30.4373 18.092 29.3138 19.0613 28.3727L19.0372 28.3588L19.5141 27.9619L19.6183 27.8745C19.7245 27.7852 19.8247 27.7059 19.9249 27.6304L20.0611 27.5272L20.0852 27.5114L20.2555 27.3883C20.3396 27.3268 20.4278 27.2673 20.518 27.2097L20.5761 27.17C21.4293 26.616 22.3641 26.1962 23.3472 25.9257C21.9005 25.3258 20.7082 24.2482 19.9729 22.8762C19.2376 21.5042 19.0046 19.9223 19.3135 18.3994C19.6224 16.8764 20.4542 15.5064 21.6674 14.5221C22.8807 13.5378 24.4007 13 25.969 13C27.5374 13 29.0573 13.5378 30.2706 14.5221C31.4839 15.5064 32.3157 16.8764 32.6246 18.3994C32.9335 19.9223 32.7005 21.5042 31.9651 22.8762C31.2298 24.2482 30.0375 25.3258 28.5909 25.9257C29.5867 26.1942 30.5334 26.6168 31.396 27.178L31.4561 27.2176C31.5443 27.2752 31.6325 27.3347 31.7186 27.3963L31.8869 27.5173L31.915 27.5391L32.0492 27.6384C32.0935 27.6748 32.1396 27.7112 32.1862 27.748C32.2386 27.7894 32.2918 27.8314 32.3438 27.8745L32.462 27.9698ZM19.0486 27.4639C18.9786 27.5189 18.9048 27.5769 18.8288 27.6404C17.8658 27.4742 16.9864 26.9944 16.3301 26.2769C15.6738 25.5595 15.2781 24.6455 15.2058 23.68C15.1336 22.7145 15.3889 21.7527 15.9312 20.9473C16.4735 20.1418 17.2719 19.5388 18.1996 19.2338C18.1816 19.3926 18.1816 19.5533 18.1816 19.716C18.1835 20.9664 18.5105 22.1953 19.1309 23.2843C19.7514 24.3732 20.6444 25.2857 21.7241 25.9337C21.0543 26.1931 20.4137 26.521 19.8126 26.9121L19.7505 26.9518L19.4699 27.1502L19.2916 27.2792L19.2696 27.2951L19.1193 27.4082C19.0962 27.4265 19.0726 27.445 19.0486 27.4639ZM16.0296 28.7676C16.8244 28.2493 17.7247 27.9106 18.6665 27.7754L17.7147 28.7121C15.937 30.6752 14.9537 33.2194 14.9536 35.8565V36.4023H14.641C14.4255 36.4023 14.2121 36.3602 14.013 36.2785C13.8139 36.1968 13.633 36.0771 13.4806 35.9262C13.1729 35.6214 13 35.208 13 34.7769V34.3363C12.9996 33.3799 13.2065 32.4346 13.6068 31.5643C14.0071 30.694 14.5915 29.9189 15.3203 29.2916L15.3764 29.2479L15.3984 29.2281C15.4666 29.1745 15.5327 29.1229 15.5988 29.0733C15.6329 29.0455 15.6689 29.0197 15.705 28.9939L15.8172 28.9125C15.8581 28.8822 15.9 28.8539 15.9422 28.8255C15.958 28.8149 15.9737 28.8042 15.9895 28.7934L16.0296 28.7676ZM32.1954 26.92C31.5941 26.5294 30.9535 26.2015 30.2839 25.9416C31.3636 25.2936 32.2567 24.3812 32.8771 23.2922C33.4976 22.2032 33.8245 20.9744 33.8264 19.724C33.8264 19.5612 33.8184 19.4005 33.8084 19.2417C34.7361 19.5467 35.5345 20.1498 36.0768 20.9552C36.6192 21.7607 36.8744 22.7224 36.8022 23.6879C36.7299 24.6534 36.3343 25.5674 35.6779 26.2848C35.0216 27.0023 34.1422 27.4822 33.1793 27.6483C33.0771 27.563 32.9809 27.4876 32.8887 27.4161L32.7384 27.303L32.7144 27.2872L32.5381 27.1582L32.2555 26.9597L32.1954 26.92ZM36.6256 29.2439L36.6797 29.2876C37.4094 29.9151 37.9942 30.6908 38.3945 31.5619C38.7949 32.433 39.0014 33.3792 39 34.3363V34.769C38.9995 35.2002 38.8261 35.6136 38.5181 35.9184C38.21 36.2231 37.7924 36.3943 37.357 36.3943H37.0444V35.8486C37.045 33.2117 36.0625 30.6675 34.2853 28.7041L33.3335 27.7714C34.2752 27.9069 35.1754 28.2457 35.9704 28.7637L36.0085 28.7895C36.0152 28.7939 36.0218 28.7983 36.0285 28.8027C36.0815 28.8376 36.1329 28.8715 36.1828 28.9085L36.295 28.9899L36.4012 29.0693C36.4733 29.1189 36.5375 29.1705 36.6016 29.2241L36.6256 29.2439Z" fill="white"/>
</svg>
