<svg width="52" height="52" viewBox="0 0 52 52" fill="none" xmlns="http://www.w3.org/2000/svg">
<rect x="1" y="1" width="50" height="50" rx="25" fill="#FF8D1A"/>
<path d="M33.6667 13.5417H18.3333C16.2196 13.5417 14.5 15.232 14.5 17.3084V34.6916C14.5 36.7681 16.2196 38.4584 18.3333 38.4584H33.6667C35.7804 38.4584 37.5 36.768 37.5 34.6916V17.3084C37.5 15.232 35.7804 13.5417 33.6667 13.5417ZM19.7463 19.4099H26.3569C26.8452 19.4099 27.241 19.7992 27.241 20.2794C27.241 20.7587 26.8452 21.1481 26.3569 21.1481H19.7463C19.258 21.1481 18.8622 20.7587 18.8622 20.2794C18.8622 19.7992 19.258 19.4099 19.7463 19.4099ZM32.2537 32.5909H19.7463C19.258 32.5909 18.8622 32.2016 18.8622 31.7214C18.8622 31.2413 19.258 30.852 19.7463 30.852H32.2537C32.742 30.852 33.1394 31.2413 33.1394 31.7214C33.1394 32.2016 32.742 32.5909 32.2537 32.5909ZM32.2537 26.8695H19.7463C19.258 26.8695 18.8622 26.481 18.8622 26.0008C18.8622 25.5199 19.258 25.1305 19.7463 25.1305H32.2537C32.742 25.1305 33.1394 25.5198 33.1394 26.0008C33.1394 26.481 32.742 26.8695 32.2537 26.8695Z" fill="white"/>
</svg>
