<svg width="52" height="52" viewBox="0 0 52 52" fill="none" xmlns="http://www.w3.org/2000/svg">
<rect x="1" y="1" width="50" height="50" rx="25" fill="#007AFF"/>
<path fill-rule="evenodd" clip-rule="evenodd" d="M25.9953 39C21.6885 38.9346 18.1197 38.1872 15.9989 36.0011C13.8034 33.871 13.0561 30.3022 13 25.9953C13.0561 21.6885 13.8034 18.1197 15.9989 15.9989C18.1197 13.8034 21.6885 13.0561 25.9953 13C30.3022 13.0561 33.871 13.8034 36.0011 15.9989C38.1872 18.1197 38.9346 21.6885 39 25.9953C38.9346 30.3022 38.1872 33.871 36.0011 36.0011C33.871 38.1872 30.3022 38.9346 25.9953 39ZM21.6735 22.0708C21.6735 21.0245 22.7946 20.3612 23.7102 20.875L30.7637 24.7988C31.7073 25.322 31.7073 26.6673 30.7637 27.1905L23.7102 31.1237C22.7946 31.6281 21.6735 30.9742 21.6735 29.9278V22.0708Z" fill="white"/>
</svg>
